<svg width="65" height="65" viewBox="0 0 65 65" fill="none" xmlns="http://www.w3.org/2000/svg">
<g clip-path="url(#clip0_4344_442)">
<path d="M16.1855 18.0788H48.8209C49.8726 18.0788 50.7252 17.2262 50.7252 16.1745C50.7252 15.1228 49.8726 14.2702 48.8209 14.2702H46.6458V10.0554C46.6458 5.63119 43.0464 2.03194 38.6224 2.03194H34.4075V1.89648C34.4075 0.844805 33.5549 -0.0078125 32.5032 -0.0078125C31.4515 -0.0078125 30.5989 0.844805 30.5989 1.89648V2.03194H26.3841C21.9599 2.03194 18.3606 5.63119 18.3606 10.0554V14.2702H16.1855C15.1339 14.2702 14.2812 15.1228 14.2812 16.1745C14.2812 17.2262 15.1339 18.0788 16.1855 18.0788Z" fill="black"/>
<path d="M37.8689 33.8442C37.8728 33.8395 37.8769 33.8349 37.8811 33.8303C40.6421 30.6441 42.3704 26.373 42.755 21.8867H22.25C22.6344 26.373 24.3631 30.6443 27.1241 33.8306C27.128 33.8352 27.132 33.8396 27.136 33.8442C28.5867 35.5153 30.4924 36.4355 32.5025 36.4355C34.5125 36.4355 36.4183 35.5153 37.8689 33.8442Z" fill="black"/>
<path d="M40.5234 36.5859V48.6758H44.8737V36.4375H40.6584C40.614 36.4876 40.5686 36.5367 40.5234 36.5859Z" fill="black"/>
<path d="M28.2852 60.6406H36.7148V64.9909H28.2852V60.6406Z" fill="black"/>
<path d="M20.1289 64.9934H24.4792V58.7388C24.4792 57.6872 25.3318 56.8345 26.3835 56.8345H38.6218C39.6735 56.8345 40.5261 57.6872 40.5261 58.7388V64.9934H44.8764V52.4844H20.1289V64.9934Z" fill="black"/>
<path d="M48.6836 36.6602V50.7156H56.793C56.3558 42.4464 53.0481 37.7059 48.6836 36.6602Z" fill="black"/>
<path d="M8.16016 63.0886C8.16016 64.1403 9.01277 64.9929 10.0645 64.9929H16.3191V54.5234H8.16016V63.0886Z" fill="black"/>
<path d="M28.2852 39.3398V48.6751H36.7148V39.34C35.3809 39.9304 33.9496 40.2454 32.5 40.2454C31.0504 40.2454 29.6191 39.9304 28.2852 39.3398Z" fill="black"/>
<path d="M8.21094 50.7155H16.3202V36.6602C11.9355 37.7118 8.64766 42.4925 8.21094 50.7155Z" fill="black"/>
<path d="M48.6836 54.5234V64.9929H54.9382C55.9899 64.9929 56.8425 64.1403 56.8425 63.0886V54.5234H48.6836Z" fill="black"/>
<path d="M20.1289 48.6758H24.4792V36.5859C24.434 36.5367 24.3887 36.4876 24.3443 36.4375H20.1289V48.6758Z" fill="black"/>
<path d="M18.4277 21.8867H17.9472C17.2652 23.4204 15.8246 24.6634 14.3232 25.9582C12.2957 27.7066 10.1992 29.5147 10.1992 32.2207C10.1992 33.2022 10.3872 34.2101 10.8867 35.162C12.9936 33.5076 15.5014 32.627 18.2227 32.627H21.631C19.8006 29.418 18.701 25.7466 18.4277 21.8867Z" fill="black"/>
<path d="M54.803 32.2207C54.803 29.5147 52.7063 27.7066 50.679 25.9582C49.1777 24.6634 47.7371 23.4204 47.055 21.8867H46.5745C46.3012 25.7466 45.2016 29.418 43.3711 32.627H46.7794C49.5004 32.627 52.0092 33.5067 54.1164 35.1597C54.6152 34.2085 54.803 33.2014 54.803 32.2207Z" fill="black"/>
</g>
<defs>
<clipPath id="clip0_4344_442">
<rect width="65" height="65" fill="white" transform="translate(0 -0.0078125)"/>
</clipPath>
</defs>
</svg>
