<svg width="65" height="65" viewBox="0 0 65 65" fill="none" xmlns="http://www.w3.org/2000/svg">
<g clip-path="url(#clip0_4344_520)">
<path d="M8.02148 11.9597H28.4187C29.4703 11.9597 30.323 11.1071 30.323 10.0554V1.89648C30.323 0.844805 29.4703 -0.0078125 28.4187 -0.0078125H8.02148C6.9698 -0.0078125 6.11719 0.844805 6.11719 1.89648V10.0554C6.11719 11.1071 6.9698 11.9597 8.02148 11.9597Z" fill="black"/>
<path d="M28.4187 53.0234H8.02148C6.9698 53.0234 6.11719 53.8761 6.11719 54.9277V63.0866C6.11719 64.1383 6.9698 64.9909 8.02148 64.9909H28.4187C29.4703 64.9909 30.323 64.1383 30.323 63.0866V54.9277C30.323 53.8761 29.4703 53.0234 28.4187 53.0234Z" fill="black"/>
<path d="M56.9733 20.3906H48.8145C47.7628 20.3906 46.9102 21.2432 46.9102 22.2949V42.6921C46.9102 43.7438 47.7628 44.5964 48.8145 44.5964H56.9733C58.025 44.5964 58.8776 43.7438 58.8776 42.6921V22.2949C58.8776 21.2431 58.025 20.3906 56.9733 20.3906Z" fill="black"/>
<path d="M10.1953 49.2174H26.2422V43.1816C23.5832 40.2451 22.1288 36.4808 22.1288 32.4934C22.1288 28.5052 23.5835 24.7405 26.2422 21.8051V15.7695H10.1953V49.2174Z" fill="black"/>
<path d="M29.8718 40.5156H43.1017V24.4688H29.8719C29.266 24.4688 28.6997 24.76 28.3368 25.2452C26.7795 27.3277 25.9375 29.8453 25.9375 32.4922C25.9375 35.139 26.7795 37.6566 28.3367 39.7392C28.6995 40.2245 29.2657 40.5156 29.8718 40.5156Z" fill="black"/>
</g>
<defs>
<clipPath id="clip0_4344_520">
<rect width="65" height="65" fill="white" transform="translate(0 -0.0078125)"/>
</clipPath>
</defs>
</svg>
