<svg width="65" height="65" viewBox="0 0 65 65" fill="none" xmlns="http://www.w3.org/2000/svg">
<g clip-path="url(#clip0_4344_528)">
<path d="M56.9746 32.6264H54.7995V30.4512C54.7995 29.3995 53.9469 28.5469 52.8952 28.5469H50.4492V40.5144H52.8952C53.9469 40.5144 54.7995 39.6617 54.7995 38.6101V36.435H56.9746C58.0263 36.435 58.8789 35.5824 58.8789 34.5307C58.8789 33.479 58.0263 32.6264 56.9746 32.6264Z" fill="black"/>
<path d="M10.1966 30.4512V32.6264H8.02148C6.9698 32.6264 6.11719 33.479 6.11719 34.5307C6.11719 35.5824 6.9698 36.435 8.02148 36.435H10.1966V38.6101C10.1966 39.6617 11.0492 40.5144 12.1009 40.5144H14.5469V28.5469H12.1009C11.0492 28.5469 10.1966 29.3995 10.1966 30.4512Z" fill="black"/>
<path d="M36.5778 4.07157H34.4025V1.89648C34.4025 0.844805 33.5499 -0.0078125 32.4982 -0.0078125C31.4466 -0.0078125 30.5939 0.844805 30.5939 1.89648V4.07157H28.4187C24.9902 4.07157 21.9583 5.79585 20.1406 8.42188H44.8562C43.0385 5.7961 40.0064 4.07157 36.5778 4.07157Z" fill="black"/>
<path d="M46.7768 12.2305H18.2207C17.169 12.2305 16.3164 13.0831 16.3164 14.1348V18.4851C16.3164 19.5367 17.169 20.3894 18.2207 20.3894H46.7768C47.8285 20.3894 48.6811 19.5367 48.6811 18.4851V14.1348C48.6811 13.0831 47.8285 12.2305 46.7768 12.2305Z" fill="black"/>
<path d="M32.4994 32.3555C31.3001 32.3555 30.3242 33.3312 30.3242 34.5307C30.3242 35.73 31.3001 36.7058 32.4994 36.7058C33.6988 36.7058 34.6746 35.73 34.6746 34.5307C34.6746 33.3312 33.6988 32.3555 32.4994 32.3555Z" fill="black"/>
<path d="M46.6406 24.1992H18.3555V44.8672H46.6406V24.1992ZM32.498 40.5169C29.1987 40.5169 26.5142 37.8326 26.5142 34.5332C26.5142 31.2337 29.1987 28.5494 32.498 28.5494C35.7974 28.5494 38.4819 31.2337 38.4819 34.5332C38.4819 37.8326 35.7974 40.5169 32.498 40.5169Z" fill="black"/>
<path d="M18.3555 48.6758H46.6408V53.0261H18.3555V48.6758Z" fill="black"/>
<path d="M46.7768 56.832H18.2207C17.169 56.832 16.3164 57.6846 16.3164 58.7363V63.0866C16.3164 64.1383 17.169 64.9909 18.2207 64.9909H46.7768C47.8285 64.9909 48.6811 64.1383 48.6811 63.0866V58.7363C48.6811 57.6846 47.8285 56.832 46.7768 56.832Z" fill="black"/>
</g>
<defs>
<clipPath id="clip0_4344_528">
<rect width="65" height="65" fill="white" transform="translate(0 -0.0078125)"/>
</clipPath>
</defs>
</svg>
