<svg width="65" height="65" viewBox="0 0 65 65" fill="none" xmlns="http://www.w3.org/2000/svg">
<path d="M48.8023 6.30247C52.6153 6.30665 56.2709 7.8232 58.9671 10.5194C61.6633 13.2156 63.1798 16.8712 63.184 20.6842L63.184 20.7562C63.184 20.8036 63.1901 20.8748 63.1954 20.9687C63.4905 26.1916 62.6368 40.2931 48.3693 58.3622C48.2408 58.5245 48.0591 58.6362 47.8563 58.6776C47.6535 58.719 47.4426 58.6874 47.2608 58.5885C47.0789 58.4895 46.9379 58.3296 46.8625 58.1368C46.7872 57.944 46.7823 57.7308 46.8488 57.5348C46.8892 57.4153 50.7883 45.7355 48.1242 35.0483C44.3718 34.8722 40.8372 33.2349 38.2764 30.4866C35.7155 27.7382 34.3316 24.097 34.4207 20.3415C34.5097 16.586 36.0646 13.0145 38.7529 10.3906C41.4411 7.76668 45.0493 6.29876 48.8058 6.30071L48.8023 6.30247ZM61.4272 20.6341C61.4175 18.1392 60.6688 15.7032 59.2757 13.6335C57.8825 11.5638 55.9074 9.95331 53.5997 9.0053C51.2919 8.05729 48.755 7.81428 46.3093 8.30696C43.8635 8.79963 41.6186 10.0059 39.8579 11.7735C38.0972 13.541 36.8996 15.7907 36.4165 18.2383C35.9333 20.686 36.1862 23.2219 37.1432 25.5259C38.1001 27.83 39.7183 29.7988 41.7934 31.1839C43.8685 32.569 46.3074 33.3082 48.8023 33.3082C48.9947 33.3083 49.1817 33.3714 49.3347 33.4881C49.4876 33.6047 49.5981 33.7683 49.6491 33.9538C51.6693 41.3058 50.6785 49.018 49.6745 53.698C60.9916 37.845 61.7022 25.7445 61.4378 21.0671C61.4258 20.9231 61.4223 20.7785 61.4272 20.6341ZM16.1389 6.30247C19.9519 6.30666 23.6075 7.82321 26.3037 10.5194C28.9999 13.2156 30.5164 16.8712 30.5206 20.6842L30.5206 20.7562C30.5206 20.8036 30.5268 20.8748 30.532 20.9687C30.8272 26.1916 29.9734 40.2931 15.7059 58.3622C15.5774 58.5245 15.3957 58.6362 15.1929 58.6776C14.9901 58.719 14.7792 58.6874 14.5974 58.5885C14.4156 58.4895 14.2745 58.3296 14.1992 58.1368C14.1238 57.944 14.1189 57.7308 14.1854 57.5348C14.2258 57.4153 18.1249 45.7355 15.4608 35.0483C11.7084 34.8722 8.17387 33.2349 5.613 30.4866C3.05214 27.7382 1.66826 24.097 1.75731 20.3415C1.84635 16.586 3.40125 13.0145 6.08949 10.3906C8.77773 7.76668 12.3859 6.29876 16.1424 6.30071L16.1389 6.30247ZM28.7639 20.6341C28.7541 18.1392 28.0054 15.7032 26.6123 13.6335C25.2192 11.5638 23.244 9.95332 20.9363 9.0053C18.6285 8.05729 16.0917 7.81429 13.6459 8.30696C11.2002 8.79964 8.95522 10.0059 7.19451 11.7735C5.4338 13.541 4.23626 15.7907 3.7531 18.2383C3.26994 20.686 3.5228 23.2219 4.47978 25.5259C5.43676 27.83 7.05495 29.7988 9.13003 31.1839C11.2051 32.569 13.644 33.3082 16.1389 33.3082C16.3313 33.3083 16.5183 33.3715 16.6713 33.4881C16.8243 33.6047 16.9347 33.7683 16.9857 33.9538C19.006 41.3058 18.0151 49.018 17.0112 53.698C28.3282 37.845 29.0397 25.7445 28.7753 21.0671C28.7631 20.9231 28.7592 20.7785 28.7639 20.6341Z" fill="black"/>
</svg>
