<svg width="33" height="32" viewBox="0 0 33 32" fill="none" xmlns="http://www.w3.org/2000/svg">
<path d="M27.3822 20.1934L21.9365 22.4916C21.9462 22.4237 21.9559 22.3558 21.9559 22.2831C21.9559 21.2262 21.0968 20.368 20.0388 20.368H16.1171C15.957 20.368 15.8016 20.334 15.656 20.2662L12.3314 18.7631C11.8076 18.5287 11.2405 18.4064 10.6666 18.4043H7.95832V19.374H10.6666C11.0986 19.374 11.5354 19.4662 11.9334 19.6455L15.258 21.1486C15.5298 21.2698 15.8211 21.3328 16.122 21.3328H20.0436C20.5678 21.3328 20.9901 21.7595 20.9901 22.2783C20.9901 22.7971 20.563 23.2237 20.0436 23.2237H14.962V24.1934H20.0388C20.3737 24.1934 20.6843 24.1013 20.9561 23.951V23.9558L27.7559 21.0807C28.0308 20.9635 28.3268 20.9038 28.6257 20.9055C28.9246 20.9072 29.2199 20.9701 29.4935 21.0904C29.9206 21.2795 30.27 21.5849 30.503 21.9825L18.5002 28.3437C17.5829 28.8286 16.4908 28.9255 15.5007 28.6104L9.62794 26.7243L7.95346 26.7001V27.6698H9.40467L15.2047 29.5316C15.6852 29.6868 16.1802 29.7595 16.6801 29.7595C17.4664 29.7595 18.2527 29.5704 18.9516 29.1971L31.7407 22.4286L31.5999 22.031C31.4548 21.6254 31.2279 21.2538 30.9332 20.9394C30.6385 20.625 30.2823 20.3744 29.8866 20.2031C29.0809 19.8589 28.1927 19.8492 27.3822 20.1934ZM6.9051 28.431V18.1377C6.9051 17.6043 6.46828 17.168 5.93439 17.168H1.04688V18.1377H5.93439V28.4358H1.04688V29.4055H5.93439C6.46828 29.4007 6.9051 28.9643 6.9051 28.431Z" fill="black"/>
<path d="M4.65975 26.9249C4.6595 27.0143 4.64162 27.1027 4.60714 27.1852C4.57266 27.2677 4.52225 27.3426 4.45879 27.4057C4.39533 27.4687 4.32007 27.5186 4.2373 27.5526C4.15452 27.5866 4.06586 27.6039 3.97637 27.6037C3.88689 27.6034 3.79832 27.5856 3.71575 27.5511C3.63317 27.5167 3.55819 27.4663 3.49509 27.4029C3.432 27.3395 3.38202 27.2643 3.34801 27.1817C3.314 27.099 3.29662 27.0104 3.29688 26.921C3.29739 26.7405 3.36968 26.5675 3.49784 26.4402C3.626 26.3129 3.79953 26.2417 3.98026 26.2422C4.16098 26.2427 4.33411 26.3149 4.46154 26.443C4.58897 26.571 4.66027 26.7443 4.65975 26.9249ZM12.5322 13.7855L13.0564 14.1734L16.6674 12.1758L19.9338 14.1394L20.2153 14.3043L20.7395 13.9261L19.9533 9.88246L22.8411 7.38064L23.0741 7.15761L22.8702 6.5564L18.7836 6.05215L17.2984 2.54185L17.1625 2.25094L16.8518 2.24609H16.5218L14.7794 5.98428L10.9742 6.30428L10.649 6.34306L10.4549 6.94912L13.4689 9.7564L12.5322 13.7855ZM12.1196 7.18185L15.1385 6.92003L15.4249 6.88609L16.8179 3.89943L17.9973 6.67761L18.1186 6.94428L21.3996 7.3467L19.1282 9.31518L18.9 9.50912L19.531 12.7576L16.9295 11.1915L16.682 11.0606L13.8038 12.6558L14.4785 9.7467L14.561 9.44609L12.1196 7.18185Z" fill="black"/>
<path d="M6.14778 11.9964L5.44401 15.017L5.34694 15.3661L5.89539 15.7686L8.91915 14.0958L11.5886 15.6958L11.8895 15.8849L12.4283 15.4922L11.7682 12.1031L12.4719 11.497L11.8361 10.7649L10.8994 11.5746L10.7586 11.7395V11.9334L11.2149 14.3431L9.24434 13.1552L9.14241 13.0583L8.72986 13.0486L8.63279 13.1455L6.61857 14.2607L7.16217 11.9043V11.6183L5.27414 9.86311L7.58442 9.65947L7.80769 9.65462L8.01154 9.45098L9.04534 7.23038L9.97722 9.42674L10.1277 9.7128H10.3995L11.5692 9.85826L11.6905 8.89341L10.7538 8.78189L9.52099 5.8728L9.35597 5.5625L8.68618 5.61583L8.59396 5.90189L7.28351 8.71886L4.19665 8.98553L3.81322 9.00492L3.60938 9.7128L3.87632 9.88735L6.14778 11.9964ZM22.1014 8.78189L22.1887 9.74674L23.1255 9.65947L23.3439 9.64977L23.5477 9.44614L24.5815 7.22553L25.4697 9.31523L25.4794 9.70795H25.9357L28.2508 9.99402L26.4501 11.5552L26.29 11.7249V11.9334L26.7511 14.3383L24.7757 13.1552L24.6737 13.0534L24.2466 13.0583L24.1593 13.1504L22.1548 14.2607L22.7032 11.9043L22.6984 11.6183L21.4558 10.4595L20.7909 11.1673L21.6791 11.9964L20.9802 15.017L20.8831 15.3419L21.4122 15.7783L24.4553 14.0958L27.1296 15.7007L27.4306 15.8849L27.9596 15.4873L27.2995 12.1031L29.6341 10.0813C29.7942 9.95523 29.8622 9.74189 29.8088 9.54795L29.6972 9.20371L26.29 8.78674L25.0475 5.86795L24.9019 5.60129L24.3243 5.58189L24.1738 5.81947L22.8148 8.71886L22.1014 8.78189Z" fill="black"/>
</svg>
