<svg width="33" height="32" viewBox="0 0 33 32" fill="none" xmlns="http://www.w3.org/2000/svg">
<g clip-path="url(#clip0_4327_304)">
<path d="M18.0061 12.6273L16.5496 11.3976L16.738 9.50183C16.7485 9.39991 16.73 9.2971 16.6847 9.20518C16.6395 9.11325 16.5692 9.03593 16.4819 8.98208C16.3951 8.92755 16.2946 8.89856 16.192 8.89844C16.0894 8.89832 15.9889 8.92707 15.9019 8.98139L14.2811 9.98514L12.5345 9.22045C12.4408 9.17894 12.3372 9.16466 12.2356 9.17926C12.1341 9.19387 12.0388 9.23676 11.9605 9.30302C11.8817 9.36868 11.8231 9.45518 11.7913 9.55261C11.7595 9.65005 11.7558 9.75446 11.7806 9.85389L12.2354 11.704L10.9677 13.1269C10.8992 13.2032 10.8536 13.2972 10.8361 13.3982C10.8186 13.4992 10.83 13.6031 10.8689 13.6979C10.907 13.793 10.9712 13.8755 11.0542 13.9358C11.1371 13.9961 11.2353 14.0319 11.3377 14.039L13.2396 14.1786L14.2027 15.823C14.2508 15.9058 14.3198 15.9744 14.4028 16.0221C14.4859 16.0698 14.58 16.0947 14.6758 16.0945C14.7852 16.0952 14.8922 16.063 14.9831 16.0021C15.0739 15.9412 15.1444 15.8545 15.1853 15.7531L15.9059 13.9893L17.7692 13.5824C17.8695 13.5608 17.9616 13.5115 18.0351 13.44C18.1086 13.3686 18.1605 13.2779 18.1847 13.1783C18.2098 13.079 18.2063 12.9746 18.1747 12.8772C18.1431 12.7797 18.0847 12.6931 18.0061 12.6273ZM15.5088 13.1208C15.4218 13.1398 15.3407 13.1797 15.2726 13.2369C15.2044 13.2942 15.1512 13.3672 15.1175 13.4495L14.6151 14.6791L13.9435 13.5325C13.8985 13.4558 13.8355 13.3912 13.76 13.3442C13.6844 13.2972 13.5986 13.2693 13.5099 13.2628L12.184 13.1655L13.068 12.1731C13.1271 12.1067 13.1692 12.0269 13.1906 11.9406C13.212 11.8543 13.2121 11.7641 13.1909 11.6777L12.8738 10.388L14.0912 10.9209C14.1728 10.9567 14.2618 10.9721 14.3507 10.9658C14.4396 10.9595 14.5257 10.9317 14.6014 10.8848L15.7314 10.185L15.6001 11.5066C15.5913 11.5951 15.6042 11.6845 15.6376 11.7669C15.6711 11.8494 15.7241 11.9225 15.7921 11.98L16.8076 12.8371L15.5088 13.1208Z" fill="black"/>
<path d="M31.4975 24.1778L29.9406 22.804C29.5435 22.4537 28.9383 22.4464 28.5328 22.7869L28.463 22.8456C28.3941 22.5979 28.2684 22.3634 28.0839 22.1649C27.8584 21.9223 27.5722 21.7564 27.2569 21.6817C27.4388 21.1237 27.3212 20.4859 26.8941 20.0262C26.5903 19.6993 26.1772 19.5102 25.731 19.4937C25.7175 19.4932 25.7042 19.4934 25.6908 19.4932C25.7113 19.0605 25.565 18.6202 25.2474 18.2784C24.9474 17.9555 24.5406 17.7674 24.1007 17.7469C24.1403 17.2929 23.9955 16.8245 23.6615 16.4651C23.3577 16.1381 22.9446 15.949 22.4984 15.9326C22.0521 15.9157 21.6263 16.0742 21.2991 16.3777L21.0774 16.5835C20.7553 16.3512 20.37 16.2194 19.9607 16.2059C19.9094 16.2044 19.8581 16.2047 19.8069 16.2069L19.973 15.653C20.271 14.6595 20.4565 12.8584 20.451 12.9551C20.4671 12.9628 20.4828 12.9709 20.4993 12.9782C20.726 13.0789 20.9714 13.1309 21.2195 13.1307C21.5008 13.1307 21.7807 13.0641 22.0308 12.9318C22.5515 12.6564 22.9211 12.0808 22.9505 11.4994C22.9785 10.9461 22.7177 10.4575 22.2161 10.1236C22.113 10.0549 21.9869 10.03 21.8654 10.0543C21.744 10.0786 21.6371 10.1501 21.5684 10.2531C21.4997 10.3561 21.4748 10.4821 21.4991 10.6034C21.5234 10.7248 21.595 10.8315 21.6981 10.9001C21.9211 11.0486 22.0286 11.2343 22.0175 11.4522C22.0046 11.7086 21.8264 11.984 21.5937 12.107C21.3804 12.2199 21.1069 12.2271 20.8798 12.1258C20.7348 12.0612 20.5468 11.9238 20.4748 11.6361C20.2605 10.7793 20.7519 9.92887 21.3208 8.94425C22.3513 7.16069 23.6338 4.94112 20.9492 1.77137L19.8375 0.458623C19.7277 0.328294 19.5932 0.221045 19.4416 0.143108C19.29 0.0651703 19.1244 0.0180973 18.9545 0.00462316C18.7846 -0.00980738 18.6136 0.00962465 18.4513 0.0617905C18.289 0.113956 18.1387 0.197816 18.0091 0.308498C17.6562 0.608377 17.3812 0.989192 17.2077 1.41837C17.0342 1.84755 16.9674 2.31232 17.0129 2.77294L17.0684 3.33369C17.0822 3.47517 17.0627 3.61792 17.0113 3.7505C16.9599 3.88307 16.8782 4.00178 16.7726 4.09712L17.3746 4.81212C17.5962 4.61894 17.7684 4.37564 17.8769 4.1025C17.9853 3.82936 18.0268 3.53429 17.998 3.24187L17.9425 2.68112C17.9118 2.37055 17.9569 2.05716 18.0738 1.76778C18.1908 1.4784 18.3762 1.22163 18.6142 1.01944C18.6503 0.988511 18.6922 0.965088 18.7375 0.950537C18.7828 0.935985 18.8305 0.930596 18.8779 0.934686C18.9253 0.938442 18.9715 0.951571 19.0138 0.973308C19.0561 0.995046 19.0936 1.02496 19.1242 1.06131L20.236 2.37406C22.4962 5.04287 21.5322 6.71137 20.5117 8.47769C20.352 8.754 20.1911 9.03287 20.0455 9.31562C19.6595 7.99062 19.0135 6.75875 18.1204 5.69794L15.9825 3.15875L15.9945 3.14869C16.0791 3.07805 16.1488 2.99135 16.1996 2.89361C16.2504 2.79588 16.2813 2.68905 16.2905 2.57931C16.3002 2.46962 16.2882 2.35909 16.2549 2.2541C16.2216 2.14911 16.1678 2.05176 16.0966 1.96769L15.4135 1.15637C15.3428 1.07189 15.256 1.00226 15.1582 0.951521C15.0604 0.900776 14.9534 0.869923 14.8436 0.860748C14.7338 0.850987 14.6231 0.863067 14.518 0.896291C14.4129 0.929516 14.3154 0.983224 14.2313 1.05431L3.43644 10.1239C3.08239 10.4213 3.03659 10.9511 3.33434 11.3049L4.01743 12.1162C4.08815 12.2007 4.17494 12.2703 4.27279 12.3211C4.37064 12.3718 4.47759 12.4026 4.58746 12.4118C4.69725 12.4216 4.80791 12.4096 4.913 12.3764C5.0181 12.3431 5.11553 12.2894 5.19966 12.2182L5.21173 12.208L6.01463 13.1617C5.90304 13.2479 5.77295 13.307 5.63459 13.3345C5.49624 13.3619 5.35339 13.3569 5.2173 13.3199L4.67342 13.1707C4.22659 13.0483 3.75672 13.0358 3.30399 13.1343C2.85126 13.2327 2.42916 13.4393 2.07378 13.7363C1.94273 13.8452 1.83465 13.9791 1.75583 14.1301C1.677 14.2811 1.629 14.4463 1.61461 14.616C1.59925 14.7856 1.61778 14.9566 1.66913 15.119C1.72048 15.2813 1.80363 15.4319 1.91373 15.5619L3.0217 16.8779C5.69692 20.0554 8.10324 19.1668 10.0368 18.4527C10.9094 18.1304 11.6847 17.8442 12.3808 17.9446C12.5102 17.9811 12.6403 18.0151 12.771 18.0468C12.7926 18.0552 12.8141 18.0639 12.8355 18.0733C13.1073 18.1926 13.2112 18.4009 13.2505 18.5546C13.3121 18.7952 13.2589 19.0633 13.1116 19.2544C12.951 19.4627 12.6493 19.5915 12.3941 19.5613C12.1772 19.5354 12.012 19.3983 11.9031 19.1537C11.8516 19.0424 11.7583 18.9557 11.6435 18.9126C11.5286 18.8694 11.4013 18.8731 11.2891 18.9229C11.177 18.9728 11.0889 19.0647 11.0441 19.1789C10.9992 19.293 11.0012 19.4202 11.0494 19.5329C11.2944 20.0831 11.7326 20.4222 12.2832 20.4879C12.3441 20.4952 12.4054 20.4988 12.4668 20.4987C12.9912 20.4987 13.53 20.2411 13.8516 19.8237C14.1749 19.4044 14.2886 18.8435 14.1555 18.3235C14.1524 18.3116 14.1487 18.3001 14.1454 18.2883C14.5742 18.3367 15.0053 18.3611 15.4368 18.3612C15.9034 18.3612 16.3754 18.3334 16.8498 18.2768L16.8911 18.2719C16.6781 18.5254 16.5136 18.816 16.4058 19.129L14.5697 23.6406L4.77559 31.1637C4.69823 31.2231 4.64143 31.3052 4.61316 31.3985C4.5849 31.4918 4.58659 31.5915 4.618 31.6838C4.64941 31.7761 4.70896 31.8562 4.7883 31.913C4.86763 31.9697 4.96275 32.0002 5.06032 32.0002H16.1576C16.22 32.0002 16.2817 31.9877 16.3392 31.9635C16.3967 31.9393 16.4487 31.9038 16.4922 31.8592L17.1103 31.2252C17.1961 31.1365 17.2432 31.0174 17.2413 30.894C17.2394 30.7706 17.1886 30.653 17.1002 30.5669C17.0117 30.4808 16.8927 30.4332 16.7692 30.4346C16.6457 30.4359 16.5277 30.4861 16.4411 30.5741L15.9606 31.067H6.43413L15.2397 24.3034C15.2462 24.2984 15.252 24.293 15.2581 24.2877C15.2623 24.2842 15.2666 24.2807 15.2707 24.277C15.2856 24.2634 15.2994 24.249 15.3122 24.2339C15.3147 24.2309 15.317 24.2277 15.3194 24.2246C15.3311 24.2101 15.3417 24.195 15.3514 24.1794C15.3532 24.1764 15.3552 24.1736 15.357 24.1706C15.368 24.152 15.3775 24.1328 15.3858 24.1131C15.3863 24.1117 15.3871 24.1106 15.3876 24.1092L17.2766 19.4677C17.2802 19.4588 17.2836 19.4497 17.2867 19.4406C17.3796 19.1661 17.5387 18.9186 17.75 18.72L19.0916 17.4586C19.3219 17.242 19.619 17.1282 19.9299 17.1386C20.2234 17.1483 20.4932 17.2696 20.6895 17.4803L20.7394 17.5339L20.7395 17.5339L20.7395 17.534L22.3805 19.2947L22.3806 19.2949L22.3808 19.2951L22.3809 19.2951L22.3812 19.2955L22.3816 19.2959L22.614 19.5453C22.712 19.6504 22.763 19.7893 22.7576 19.9363C22.7519 20.0942 22.6834 20.2419 22.5647 20.3521L22.2942 20.6031C22.1071 20.7767 21.8412 20.8096 21.6347 20.7044C21.6293 20.7015 21.6237 20.6991 21.6181 20.6963C21.5692 20.6692 21.5248 20.6345 21.4867 20.5936L20.8055 19.8616C20.5621 19.6 20.2295 19.4493 19.8691 19.4373C19.4997 19.4252 19.1459 19.559 18.874 19.8146C18.8236 19.862 18.7844 19.9199 18.7592 19.9842C18.734 20.0484 18.7233 20.1175 18.7281 20.1864C18.7303 20.2219 18.7319 20.2569 18.7328 20.2918C18.7333 20.3114 18.7333 20.3309 18.7334 20.3504C18.7335 20.3654 18.7338 20.3804 18.7336 20.3953C18.7333 20.4202 18.7324 20.4448 18.7315 20.4694C18.7312 20.4783 18.7309 20.4872 18.7305 20.4962C18.7291 20.5239 18.7272 20.5515 18.7249 20.5788L18.7241 20.5896C18.7227 20.6012 18.7217 20.6129 18.7212 20.6247C18.6776 21.0567 18.5213 21.4433 18.2482 21.7974C18.2108 21.8459 18.1833 21.9013 18.1673 21.9605C18.1513 22.0196 18.1472 22.0814 18.1551 22.1421C18.1629 22.2029 18.1827 22.2615 18.2133 22.3146C18.2439 22.3677 18.2846 22.4143 18.3332 22.4517C18.3818 22.4891 18.4373 22.5166 18.4965 22.5326C18.5557 22.5485 18.6175 22.5527 18.6783 22.5448C18.7391 22.5369 18.7978 22.5172 18.851 22.4866C18.9041 22.4561 18.9508 22.4154 18.9882 22.3669C19.1465 22.1626 19.2803 21.9405 19.3869 21.7051L23.3598 27.1331L23.265 27.2127C23.2039 27.2336 23.1478 27.2669 23.1004 27.3106C22.7702 27.614 22.3661 27.8185 21.9305 27.903L19.0055 28.113C18.8913 28.1212 18.7842 28.1709 18.7043 28.2528L17.9576 29.0187C17.8728 29.1076 17.8264 29.2264 17.8287 29.3493C17.831 29.4721 17.8817 29.5892 17.9698 29.6749C18.0579 29.7607 18.1763 29.8082 18.2993 29.8073C18.4223 29.8063 18.54 29.757 18.6268 29.6699L19.2495 29.0311L22.0241 28.8319C22.0294 28.8316 22.0346 28.8305 22.0399 28.8299C22.0517 29.0008 22.1046 29.1663 22.1941 29.3124L23.2821 31.0801C23.3633 31.212 23.472 31.325 23.6008 31.4111C23.7296 31.4973 23.8756 31.5546 24.0286 31.5792C24.1817 31.604 24.3383 31.5955 24.4878 31.5543C24.6372 31.513 24.776 31.44 24.8946 31.3403L31.4776 25.8096C31.5963 25.7099 31.692 25.5858 31.7583 25.4458C31.8246 25.3058 31.8599 25.1532 31.8617 24.9983C31.8637 24.8434 31.8322 24.6899 31.7693 24.5483C31.7065 24.4067 31.6137 24.2803 31.4975 24.1778ZM9.71292 17.5774C7.79786 18.2847 5.9891 18.9526 3.73676 16.2773L2.62879 14.9614C2.5666 14.8874 2.53695 14.7937 2.54539 14.6975C2.55384 14.6012 2.59932 14.5141 2.67353 14.4521C2.91315 14.2519 3.19776 14.1126 3.50301 14.0462C3.80826 13.9798 4.12507 13.9882 4.42635 14.0707L4.97023 14.2199C5.25227 14.2971 5.54864 14.3062 5.83492 14.2466C6.1212 14.187 6.38921 14.0603 6.61688 13.8769L7.34965 14.7473C8.24495 15.8107 9.35223 16.6592 10.5965 17.2665C10.3003 17.3606 10.0053 17.4694 9.71292 17.5774ZM19.0781 15.3851L18.7254 16.5608C18.6282 16.626 18.5365 16.699 18.4512 16.779L18.0043 17.1992L16.7391 17.3502C13.3381 17.7561 10.0951 16.5584 8.06452 14.1466L5.92673 11.6074L6.76128 10.9062C6.80823 10.8668 6.84694 10.8185 6.87521 10.7641C6.90347 10.7097 6.92073 10.6503 6.92601 10.5893C6.93128 10.5282 6.92447 10.4667 6.90595 10.4083C6.88744 10.3499 6.85758 10.2957 6.81809 10.2488C6.77862 10.2019 6.73029 10.1632 6.67585 10.135C6.62141 10.1067 6.56193 10.0895 6.50081 10.0842C6.4397 10.0789 6.37814 10.0857 6.31966 10.1042C6.26117 10.1227 6.20691 10.1525 6.15997 10.192L4.9681 11.1933L4.96792 11.1934L4.96773 11.1936L4.67117 11.4428L4.11046 10.7769L14.7599 1.82962L15.3206 2.49562L15.0245 2.74444L15.0239 2.74487L15.0233 2.74537L7.84466 8.77662C7.74985 8.85628 7.69059 8.9703 7.67993 9.0936C7.66927 9.2169 7.70808 9.33938 7.78782 9.43409C7.86756 9.52881 7.9817 9.588 8.10513 9.59865C8.22855 9.6093 8.35116 9.57053 8.44598 9.49087L15.2677 3.75937L17.4055 6.29856C19.4361 8.7105 20.0613 12.1074 19.0781 15.3851ZM26.8987 22.5706C26.9932 22.5739 27.086 22.5958 27.1719 22.6351C27.2579 22.6745 27.3351 22.7304 27.3992 22.7998C27.5069 22.916 27.5732 23.0645 27.5877 23.2223C27.6022 23.38 27.5642 23.5381 27.4794 23.6719L25.4442 25.3819C25.336 25.3913 25.2271 25.3759 25.1257 25.3366C25.0244 25.2974 24.9335 25.2355 24.8599 25.1557C24.5902 24.8654 24.6071 24.4101 24.8974 24.1405L25.1923 23.8668C25.2466 23.8274 25.2986 23.7848 25.3479 23.7392L26.487 22.6822C26.6097 22.6043 26.7533 22.5654 26.8987 22.5706ZM25.2225 20.5764C25.358 20.4726 25.5257 20.4194 25.6963 20.4262C25.7931 20.4296 25.8883 20.452 25.9764 20.4924C26.0644 20.5327 26.1436 20.59 26.2094 20.6611C26.4858 20.9586 26.4686 21.4254 26.1709 21.7016L25.9018 21.9513C25.8476 21.9906 25.7958 22.033 25.7467 22.0784L24.6062 23.1368C24.4804 23.2177 24.3326 23.2579 24.1831 23.2519C24.0862 23.2486 23.9911 23.2261 23.903 23.1858C23.8149 23.1455 23.7357 23.0881 23.67 23.017C23.4117 22.739 23.41 22.3132 23.6539 22.0332C23.6698 22.0196 23.6857 22.0057 23.7011 21.9914L25.1599 20.6376C25.1815 20.6176 25.2022 20.5972 25.2225 20.5764ZM22.7467 18.3183L21.7421 17.2404L21.9349 17.0614C22.0792 16.9276 22.267 16.8591 22.4638 16.8651C22.5606 16.8684 22.6558 16.8909 22.7439 16.9312C22.832 16.9715 22.9111 17.0288 22.9769 17.0999C23.2533 17.3974 23.236 17.8642 22.9383 18.1405L22.7467 18.3183ZM22.93 21.2869L23.2005 21.0357C23.5022 20.7559 23.6764 20.3774 23.6912 19.9702C23.704 19.6166 23.5939 19.2787 23.3797 19.0057L23.5207 18.8747C23.5915 18.8086 23.6746 18.7572 23.7654 18.7235C23.8563 18.6897 23.9529 18.6744 24.0497 18.6784C24.1465 18.6817 24.2416 18.7042 24.3297 18.7445C24.4178 18.7848 24.4969 18.8422 24.5626 18.9132C24.8211 19.1914 24.8227 19.6173 24.5786 19.8974C24.5627 19.9109 24.547 19.9248 24.5316 19.9389L23.0728 21.2927C23.0512 21.3128 23.0303 21.3333 23.01 21.3542C22.9009 21.4376 22.7704 21.4884 22.6336 21.5007C22.7405 21.4415 22.8401 21.3697 22.93 21.2869ZM19.665 20.5039C19.6664 20.4687 19.6677 20.4336 19.668 20.3981C19.7222 20.3776 19.78 20.3681 19.838 20.3702C19.948 20.3738 20.0486 20.419 20.1214 20.4972L20.8025 21.2291C20.8709 21.3026 20.9467 21.3689 21.0286 21.4269C21.1035 21.6028 21.2084 21.7643 21.3387 21.9042C21.6425 22.2311 22.0556 22.4202 22.5019 22.4367C22.5153 22.4372 22.5286 22.4373 22.542 22.4375C22.5216 22.8701 22.6679 23.3103 22.9854 23.652C23.213 23.8969 23.502 24.0645 23.8202 24.1401C23.6343 24.6951 23.7494 25.3324 24.1752 25.7906C24.2927 25.917 24.4295 26.0239 24.5804 26.1076L24.0763 26.5311L19.665 20.5039ZM30.8763 25.0952L24.2933 30.626C24.2775 30.6394 24.259 30.6492 24.239 30.6547C24.219 30.6603 24.1981 30.6613 24.1776 30.6579C24.1571 30.6547 24.1376 30.6471 24.1204 30.6356C24.1031 30.6241 24.0886 30.6089 24.0779 30.5912L22.9899 28.8235C22.9716 28.7942 22.9646 28.7593 22.9701 28.7252C22.9756 28.6911 22.9933 28.6601 23.0198 28.6381L29.1337 23.5014L29.1339 23.5012C29.1599 23.4794 29.1927 23.4675 29.2266 23.4676C29.2608 23.4676 29.295 23.4796 29.322 23.5034L30.8789 24.8772C30.922 24.9152 30.9279 24.9622 30.9276 24.9869C30.9275 25.0076 30.9228 25.0281 30.914 25.0468C30.9051 25.0655 30.8922 25.082 30.8763 25.0952Z" fill="black"/>
</g>
<defs>
<clipPath id="clip0_4327_304">
<rect width="32.0334" height="32" fill="white" transform="translate(0.71875)"/>
</clipPath>
</defs>
</svg>
