<svg width="33" height="32" viewBox="0 0 33 32" fill="none" xmlns="http://www.w3.org/2000/svg">
<path fill-rule="evenodd" clip-rule="evenodd" d="M15.6859 2.39267L14.9401 3.80317C14.9269 3.8281 14.9082 3.84967 14.8854 3.86623C14.8626 3.88278 14.8362 3.89388 14.8084 3.89867L13.2348 4.17167C13.0224 4.20867 12.8241 4.30279 12.6612 4.44394C12.4983 4.58508 12.3771 4.7679 12.3104 4.97274C12.2438 5.17759 12.2343 5.3967 12.2829 5.60654C12.3316 5.81637 12.4366 6.00898 12.5866 6.16367L13.6993 7.30867C13.7393 7.34967 13.7579 7.40667 13.7498 7.46317L13.5231 9.04217C13.4921 9.25556 13.5201 9.47336 13.6039 9.67204C13.6878 9.87072 13.8244 10.0427 13.9991 10.1695C14.1737 10.2963 14.3796 10.373 14.5947 10.3913C14.8098 10.4097 15.0258 10.369 15.2194 10.2737L16.6529 9.57017C16.6783 9.55783 16.7062 9.55142 16.7345 9.55142C16.7627 9.55142 16.7906 9.55783 16.816 9.57017L18.2495 10.2737C18.4432 10.3686 18.6591 10.409 18.874 10.3905C19.0889 10.372 19.2947 10.2953 19.4692 10.1686C19.6437 10.0419 19.7803 9.87006 19.8643 9.67157C19.9482 9.47309 19.9764 9.25547 19.9458 9.04217L19.7191 7.46317C19.7151 7.43527 19.7176 7.40683 19.7263 7.38004C19.7351 7.35325 19.7499 7.32884 19.7696 7.30867L20.8823 6.16367C21.0321 6.00891 21.137 5.81631 21.1856 5.60652C21.2341 5.39673 21.2246 5.1777 21.158 4.97292C21.0913 4.76814 20.9701 4.58536 20.8074 4.4442C20.6446 4.30304 20.4464 4.20882 20.2341 4.17167L18.6605 3.89867C18.6327 3.89388 18.6063 3.88278 18.5835 3.86623C18.5607 3.84967 18.542 3.8281 18.5288 3.80317L17.783 2.39267C17.6822 2.20221 17.5313 2.04281 17.3465 1.93164C17.1618 1.82047 16.9501 1.76172 16.7345 1.76172C16.5188 1.76172 16.3072 1.82047 16.1224 1.93164C15.9376 2.04281 15.7867 2.20221 15.6859 2.39267ZM16.5713 2.85967C16.5869 2.82992 16.6103 2.805 16.6391 2.78761C16.6679 2.77023 16.7008 2.76104 16.7345 2.76104C16.7681 2.76104 16.801 2.77023 16.8298 2.78761C16.8586 2.805 16.882 2.82992 16.8976 2.85967L17.6439 4.27017C17.7284 4.43033 17.8485 4.56897 17.9951 4.67543C18.1416 4.78188 18.3107 4.8533 18.4893 4.88417L20.0629 5.15717C20.0962 5.1626 20.1273 5.17707 20.1529 5.19898C20.1785 5.2209 20.1975 5.24942 20.2079 5.28142C20.2184 5.31343 20.2198 5.34769 20.2121 5.38045C20.2043 5.41321 20.1877 5.44321 20.164 5.46717L19.0514 6.61167C18.9251 6.74158 18.8303 6.8987 18.7743 7.07094C18.7184 7.24317 18.7027 7.42594 18.7285 7.60517L18.9548 9.18417C18.9598 9.21746 18.9555 9.25149 18.9425 9.28254C18.9295 9.31359 18.9082 9.34048 18.8809 9.36028C18.8537 9.38008 18.8215 9.39203 18.7879 9.39483C18.7544 9.39764 18.7207 9.39118 18.6905 9.37617L17.257 8.67267C17.0944 8.59295 16.9156 8.5515 16.7345 8.5515C16.5533 8.5515 16.3745 8.59295 16.2119 8.67267L14.7784 9.37617C14.7483 9.39118 14.7145 9.39764 14.681 9.39483C14.6474 9.39203 14.6152 9.38008 14.588 9.36028C14.5607 9.34048 14.5394 9.31359 14.5264 9.28254C14.5134 9.25149 14.5091 9.21746 14.5141 9.18417L14.7404 7.60517C14.7662 7.42594 14.7505 7.24317 14.6946 7.07094C14.6386 6.8987 14.5438 6.74158 14.4175 6.61167L13.3049 5.46717C13.2817 5.443 13.2656 5.41301 13.2581 5.3804C13.2507 5.34778 13.2522 5.31376 13.2626 5.28196C13.273 5.25015 13.2918 5.22175 13.317 5.19977C13.3423 5.1778 13.373 5.16308 13.406 5.15717L14.9796 4.88417C15.1582 4.8533 15.3273 4.78188 15.4738 4.67543C15.6204 4.56897 15.7405 4.43033 15.825 4.27017L16.5713 2.85967ZM29.0768 7.06567L27.5507 7.53617C27.5238 7.54449 27.4953 7.54656 27.4675 7.54223C27.4396 7.5379 27.4132 7.52727 27.3901 7.51117L26.0842 6.59217C25.9078 6.46825 25.7009 6.39471 25.4858 6.37947C25.2707 6.36422 25.0555 6.40785 24.8633 6.50565C24.6712 6.60345 24.5093 6.75173 24.3952 6.93454C24.2811 7.11734 24.2191 7.32777 24.2157 7.54317L24.1922 9.13867C24.1918 9.16682 24.1849 9.19449 24.172 9.21955C24.1592 9.24461 24.1408 9.26638 24.1181 9.28317L22.8403 10.2402C22.6675 10.3693 22.5333 10.543 22.452 10.7428C22.3708 10.9425 22.3457 11.1605 22.3795 11.3735C22.4132 11.5864 22.5045 11.786 22.6435 11.9509C22.7825 12.1158 22.9639 12.2397 23.1682 12.3092L24.6797 12.8242C24.7064 12.8333 24.7307 12.8484 24.7506 12.8684C24.7706 12.8883 24.7857 12.9125 24.7948 12.9392L25.3109 14.4492C25.3808 14.6529 25.5049 14.8337 25.6699 14.9722C25.8349 15.1108 26.0346 15.2018 26.2476 15.2354C26.4605 15.2691 26.6785 15.2442 26.8783 15.1634C27.0781 15.0825 27.2521 14.9488 27.3815 14.7767L28.3395 13.5002C28.3564 13.4775 28.3783 13.459 28.4035 13.4462C28.4286 13.4334 28.4564 13.4265 28.4847 13.4262L30.0814 13.4027C30.297 13.3993 30.5076 13.3373 30.6906 13.2234C30.8736 13.1094 31.0221 12.9477 31.12 12.7558C31.2179 12.5638 31.2615 12.3488 31.2463 12.134C31.231 11.9191 31.1574 11.7124 31.0333 11.5362L30.1139 10.2322C30.0976 10.2091 30.0868 10.1826 30.0824 10.1546C30.0779 10.1267 30.08 10.0982 30.0884 10.0712L30.5594 8.54717C30.6232 8.34126 30.6296 8.12184 30.5778 7.91257C30.526 7.7033 30.418 7.51213 30.2654 7.35967C30.1129 7.20721 29.9215 7.09926 29.7121 7.04745C29.5026 6.99564 29.283 7.00194 29.0768 7.06567ZM29.3721 8.02117C29.4043 8.01111 29.4385 8.01004 29.4712 8.01808C29.5039 8.02612 29.5338 8.04296 29.5576 8.06678C29.5814 8.09059 29.5982 8.12047 29.6062 8.15316C29.6141 8.18584 29.613 8.22009 29.6029 8.25217L29.1319 9.77617C29.0783 9.94915 29.0652 10.1321 29.0936 10.3109C29.122 10.4898 29.1911 10.6597 29.2955 10.8077L30.215 12.1122C30.2343 12.1396 30.2457 12.1718 30.2481 12.2053C30.2504 12.2388 30.2436 12.2723 30.2283 12.3022C30.213 12.332 30.1898 12.3572 30.1613 12.3749C30.1328 12.3926 30.0999 12.4022 30.0663 12.4027L28.4697 12.4262C28.2884 12.4288 28.1102 12.473 27.9487 12.5553C27.7872 12.6375 27.6468 12.7557 27.5382 12.9007L26.5807 14.1772C26.5606 14.2041 26.5335 14.225 26.5023 14.2377C26.4711 14.2503 26.4371 14.2543 26.4039 14.249C26.3707 14.2438 26.3395 14.2295 26.3138 14.2079C26.288 14.1862 26.2687 14.158 26.2579 14.1262L25.7423 12.6162C25.6837 12.4449 25.5866 12.2892 25.4585 12.1612C25.3303 12.0332 25.1746 11.9362 25.0031 11.8777L23.4915 11.3627C23.4598 11.3517 23.4316 11.3323 23.4101 11.3066C23.3885 11.2809 23.3743 11.2498 23.3691 11.2167C23.3638 11.1836 23.3677 11.1497 23.3803 11.1186C23.3928 11.0875 23.4136 11.0604 23.4404 11.0402L24.7188 10.0837C24.8638 9.97508 24.9819 9.83475 25.0642 9.67345C25.1464 9.51215 25.1906 9.33417 25.1933 9.15317L25.2168 7.55817C25.2173 7.52466 25.227 7.49192 25.2448 7.46349C25.2625 7.43505 25.2877 7.41199 25.3176 7.39677C25.3475 7.38155 25.381 7.37476 25.4145 7.37712C25.4479 7.37948 25.4801 7.39091 25.5076 7.41017L26.8134 8.32867C27.1138 8.53967 27.4952 8.60017 27.846 8.49167L29.3721 8.02117ZM2.90955 8.54717L3.38054 10.0712C3.38892 10.0982 3.39097 10.1267 3.38655 10.1546C3.38212 10.1826 3.37133 10.2091 3.35502 10.2322L2.43556 11.5362C2.31115 11.7123 2.23723 11.919 2.22179 12.1341C2.20635 12.3491 2.24996 12.5642 2.34793 12.7563C2.44589 12.9484 2.5945 13.1101 2.7777 13.224C2.96091 13.3379 3.17178 13.3997 3.38755 13.4027L4.98421 13.4262C5.01248 13.4265 5.04028 13.4334 5.06545 13.4462C5.09063 13.459 5.1125 13.4775 5.12937 13.5002L6.08736 14.7767C6.21682 14.9488 6.39079 15.0825 6.59059 15.1634C6.79038 15.2442 7.00845 15.2691 7.22135 15.2354C7.43426 15.2018 7.63396 15.1108 7.79898 14.9722C7.96401 14.8337 8.08814 14.6529 8.15802 14.4492L8.67406 12.9392C8.68321 12.9125 8.69834 12.8883 8.71829 12.8684C8.73824 12.8484 8.76249 12.8333 8.78918 12.8242L10.3008 12.3092C10.505 12.2397 10.6864 12.1158 10.8254 11.9509C10.9644 11.786 11.0557 11.5864 11.0894 11.3735C11.1232 11.1605 11.0981 10.9425 11.0169 10.7428C10.9356 10.543 10.8014 10.3693 10.6286 10.2402L9.35076 9.28367C9.32816 9.26675 9.30974 9.24488 9.2969 9.21975C9.28406 9.19462 9.27715 9.16688 9.27669 9.13867L9.25316 7.54317C9.24983 7.32777 9.18777 7.11734 9.07367 6.93454C8.95957 6.75173 8.79775 6.60345 8.60559 6.50565C8.41344 6.40785 8.19824 6.36422 7.98312 6.37947C7.76801 6.39471 7.56112 6.46825 7.38471 6.59217L6.07885 7.51067C6.05583 7.52696 6.02936 7.53774 6.0015 7.54216C5.97364 7.54658 5.94513 7.54453 5.91819 7.53617L4.3921 7.06567C4.18595 7.00194 3.9663 6.99564 3.75683 7.04745C3.54736 7.09926 3.35602 7.20721 3.20346 7.35967C3.05089 7.51213 2.94289 7.7033 2.8911 7.91257C2.8393 8.12184 2.84568 8.34126 2.90955 8.54717ZM3.86605 8.25217C3.85628 8.22012 3.8554 8.18602 3.86351 8.15351C3.87162 8.121 3.88842 8.0913 3.91211 8.06758C3.9358 8.04387 3.96549 8.02702 3.99802 8.01885C4.03055 8.01067 4.06469 8.01148 4.09679 8.02117L5.62288 8.49167C5.79602 8.54513 5.97912 8.55824 6.15812 8.52998C6.33712 8.50173 6.50725 8.43286 6.65546 8.32867L7.96132 7.41017C7.98878 7.39091 8.02097 7.37948 8.05444 7.37712C8.08791 7.37476 8.12139 7.38155 8.15129 7.39677C8.18119 7.41199 8.20637 7.43505 8.22414 7.46349C8.2419 7.49192 8.25157 7.52466 8.25212 7.55817L8.27564 9.15317C8.27833 9.33417 8.3225 9.51215 8.40475 9.67345C8.487 9.83475 8.60515 9.97508 8.75014 10.0837L10.0285 11.0402C10.0553 11.0604 10.0761 11.0875 10.0886 11.1186C10.1012 11.1497 10.1051 11.1836 10.0998 11.2167C10.0946 11.2498 10.0804 11.2809 10.0589 11.3066C10.0373 11.3323 10.0091 11.3517 9.97742 11.3627L8.46584 11.8777C8.29435 11.9362 8.13856 12.0332 8.01041 12.1612C7.88226 12.2892 7.78517 12.4449 7.72657 12.6162L7.21103 14.1262C7.20006 14.1579 7.18067 14.186 7.15494 14.2075C7.12921 14.2291 7.09809 14.2432 7.06494 14.2484C7.03178 14.2537 6.99781 14.2498 6.96668 14.2373C6.93555 14.2247 6.90842 14.2039 6.8882 14.1772L5.9307 12.9007C5.8221 12.7557 5.68166 12.6375 5.52017 12.5553C5.35869 12.473 5.18048 12.4288 4.99923 12.4262L3.40257 12.4027C3.36897 12.4022 3.33614 12.3926 3.30761 12.3749C3.27907 12.3572 3.25591 12.332 3.24062 12.3022C3.22533 12.2723 3.21848 12.2388 3.22083 12.2053C3.22317 12.1718 3.23461 12.1396 3.25391 12.1122L4.17337 10.8077C4.38509 10.5077 4.44565 10.1272 4.33704 9.77617L3.86605 8.25217ZM16.7345 11.5757C11.5781 11.5757 7.39172 15.7577 7.39172 20.9087C7.39172 26.0602 11.5781 30.2417 16.7345 30.2417C21.8908 30.2417 26.0772 26.0602 26.0772 20.9087C26.0772 15.7577 21.8908 11.5757 16.7345 11.5757ZM16.7345 12.5757C21.3382 12.5757 25.0761 16.3097 25.0761 20.9087C25.0761 25.5082 21.3382 29.2417 16.7345 29.2417C12.1307 29.2417 8.39276 25.5082 8.39276 20.9087C8.39276 16.3097 12.1307 12.5757 16.7345 12.5757Z" fill="black"/>
<path fill-rule="evenodd" clip-rule="evenodd" d="M20.3321 21.7324C18.4727 21.7324 14.9936 21.7324 13.1346 21.7454C12.8902 21.7456 12.6496 21.806 12.4341 21.9212C12.2186 22.0364 12.0349 22.2029 11.8991 22.4059C11.7633 22.6089 11.6797 22.8422 11.6557 23.0851C11.6316 23.3281 11.6678 23.5733 11.7612 23.7989C12.555 25.7609 14.484 27.1489 16.7349 27.1489C18.9842 27.1489 20.9127 25.7624 21.7206 23.8044C21.8147 23.5765 21.8511 23.3289 21.8266 23.0835C21.8021 22.8382 21.7175 22.6027 21.5801 22.3978C21.4428 22.1929 21.257 22.025 21.0393 21.909C20.8215 21.7929 20.5789 21.7323 20.3321 21.7324ZM20.3321 22.7324C20.4144 22.7324 20.4954 22.7526 20.5679 22.7913C20.6405 22.8299 20.7024 22.8859 20.7482 22.9542C20.794 23.0224 20.8222 23.1009 20.8304 23.1827C20.8385 23.2644 20.8264 23.3469 20.7951 23.4229C20.1369 25.0184 18.5673 26.1489 16.7349 26.1489C15.8651 26.1486 15.0153 25.8888 14.2943 25.4028C13.5733 24.9169 13.0141 24.2269 12.6882 23.4214L12.6867 23.4184C12.6562 23.3444 12.6444 23.264 12.6524 23.1844C12.6603 23.1047 12.6878 23.0282 12.7324 22.9617C12.777 22.8952 12.8373 22.8407 12.9079 22.8029C12.9786 22.7652 13.0575 22.7455 13.1376 22.7454H13.1411C14.9986 22.7324 18.4742 22.7324 20.3321 22.7324ZM12.3378 19.0304C12.3703 18.8224 12.531 18.6789 12.7132 18.5509C12.8168 18.4779 12.9409 18.4374 13.0696 18.3924C13.2528 18.3294 13.4467 18.3033 13.6401 18.3159C13.8043 18.3059 13.966 18.3214 14.1176 18.3634C14.2263 18.3934 14.3329 18.4194 14.428 18.4689C14.6822 18.6009 14.904 18.7709 14.9425 19.0304C14.941 19.0644 14.9464 19.0984 14.9584 19.1302C14.9703 19.1621 14.9887 19.1912 15.0122 19.2158C15.0358 19.2404 15.0641 19.26 15.0954 19.2734C15.1267 19.2867 15.1604 19.2936 15.1945 19.2936C15.2286 19.2936 15.2623 19.2867 15.2936 19.2734C15.325 19.26 15.3533 19.2404 15.3768 19.2158C15.4004 19.1912 15.4187 19.1621 15.4307 19.1302C15.4426 19.0984 15.448 19.0644 15.4465 19.0304C15.5146 18.5689 15.2779 18.1339 14.899 17.7939C14.6702 17.5889 14.3729 17.4469 14.0516 17.3654C13.9165 17.3347 13.7786 17.3183 13.6401 17.3164C13.4557 17.3197 13.2726 17.3476 13.0956 17.3994C12.8253 17.4849 12.5745 17.6114 12.3778 17.7884C11.9979 18.1304 11.7632 18.5679 11.8338 19.0304C11.8367 19.0952 11.8645 19.1564 11.9114 19.2013C11.9584 19.2462 12.0208 19.2712 12.0858 19.2712C12.1507 19.2712 12.2132 19.2462 12.2601 19.2013C12.3071 19.1564 12.3349 19.0952 12.3378 19.0304ZM18.5272 19.0304C18.5603 18.8224 18.7204 18.6789 18.9031 18.5509C19.0062 18.4779 19.1309 18.4374 19.259 18.3924C19.4422 18.3294 19.6362 18.3034 19.8296 18.3159C19.9938 18.3059 20.1554 18.3214 20.3071 18.3634C20.4162 18.3934 20.5223 18.4194 20.6174 18.4689C20.8722 18.6009 21.0934 18.7709 21.1319 19.0304C21.1348 19.0952 21.1627 19.1564 21.2096 19.2013C21.2565 19.2462 21.319 19.2712 21.384 19.2712C21.4489 19.2712 21.5114 19.2462 21.5583 19.2013C21.6053 19.1564 21.6331 19.0952 21.636 19.0304C21.704 18.5689 21.4678 18.1339 21.0884 17.7939C20.8597 17.5889 20.5624 17.4469 20.241 17.3654C20.106 17.3347 19.9681 17.3182 19.8296 17.3164C19.6452 17.3198 19.462 17.3477 19.285 17.3994C19.0147 17.4849 18.764 17.6114 18.5673 17.7884C18.1879 18.1304 17.9526 18.5679 18.0232 19.0304C18.0261 19.0952 18.0539 19.1564 18.1009 19.2013C18.1478 19.2462 18.2103 19.2712 18.2752 19.2712C18.3402 19.2712 18.4026 19.2462 18.4496 19.2013C18.4965 19.1564 18.5243 19.0952 18.5272 19.0304Z" fill="black"/>
<path fill-rule="evenodd" clip-rule="evenodd" d="M13.6297 25.6868C13.5865 25.7944 13.5821 25.9135 13.6172 26.024C13.6522 26.1344 13.7246 26.2293 13.8219 26.2923C14.689 26.8548 15.701 27.1534 16.7349 27.1518C17.808 27.1518 18.8081 26.8363 19.648 26.2938C19.7455 26.2308 19.818 26.1359 19.8531 26.0254C19.8883 25.9148 19.8839 25.7955 19.8407 25.6878C19.3957 24.5778 18.1799 23.7578 16.7349 23.7578C15.2904 23.7578 14.0751 24.5773 13.6297 25.6868ZM14.7664 25.6833C15.1703 25.1218 15.9061 24.7578 16.7349 24.7578C17.5643 24.7578 18.2995 25.1218 18.704 25.6838C18.1118 25.9833 17.4432 26.1518 16.7349 26.1518C16.0267 26.1518 15.358 25.9833 14.7664 25.6833Z" fill="black"/>
</svg>
