<svg width="33" height="32" viewBox="0 0 33 32" fill="none" xmlns="http://www.w3.org/2000/svg">
<path d="M24.3298 22.6745L29.7134 28.0185C29.7741 28.0786 29.8223 28.1501 29.8552 28.2289C29.8881 28.3076 29.9051 28.3922 29.9051 28.4775C29.9051 28.5629 29.8881 28.6474 29.8552 28.7262C29.8223 28.805 29.7741 28.8765 29.7134 28.9365L29.336 29.3115C29.2117 29.4348 29.0437 29.5039 28.8686 29.5039C28.6934 29.5039 28.5254 29.4348 28.4011 29.3115L23.1736 24.1235C23.1273 24.0759 23.072 24.038 23.0108 24.012C22.9497 23.986 22.884 23.9724 22.8175 23.972C22.7511 23.9716 22.6852 23.9844 22.6238 24.0098C22.5624 24.0351 22.5066 24.0724 22.4597 24.1194C22.4129 24.1665 22.3759 24.2224 22.3509 24.2839C22.3259 24.3454 22.3134 24.4113 22.3142 24.4777C22.3149 24.5441 22.3289 24.6096 22.3553 24.6705C22.3817 24.7315 22.42 24.7865 22.4679 24.8325L27.6953 30.0205C28.0073 30.3298 28.429 30.5033 28.8686 30.5033C29.3081 30.5033 29.7298 30.3298 30.0418 30.0205L30.4192 29.6455C30.5738 29.4926 30.6966 29.3107 30.7803 29.1101C30.8641 28.9095 30.9072 28.6944 30.9072 28.477C30.9072 28.2597 30.8641 28.0445 30.7803 27.844C30.6966 27.6434 30.5738 27.4614 30.4192 27.3085L25.0356 21.9655C24.9409 21.8747 24.8143 21.8246 24.6831 21.8261C24.5518 21.8276 24.4264 21.8805 24.3339 21.9735C24.2413 22.0665 24.189 22.1921 24.1883 22.3232C24.1875 22.4543 24.2383 22.5805 24.3298 22.6745ZM18.3436 22.6355V22.3055C18.3436 22.1729 18.3963 22.0457 18.4902 21.952C18.5841 21.8582 18.7114 21.8055 18.8441 21.8055H20.2626L25.9565 16.1545L26.0316 15.4175C26.0387 15.3468 26.0608 15.2785 26.0966 15.2171C26.1323 15.1557 26.1808 15.1026 26.2388 15.0615L29.1649 12.9795C29.2611 12.9113 29.3783 12.8792 29.4959 12.8889C29.6135 12.8986 29.7238 12.9494 29.8075 13.0325L30.7585 13.9765C30.8435 14.0608 30.8953 14.1728 30.9047 14.2921C30.9141 14.4113 30.8803 14.53 30.8096 14.6265L28.6934 17.5115C28.6531 17.5666 28.6019 17.6128 28.543 17.6474C28.4841 17.682 28.4188 17.7041 28.351 17.7125L27.6183 17.8025L21.9203 23.4575V24.8245C21.9203 24.9571 21.8676 25.0843 21.7737 25.1781C21.6798 25.2718 21.5525 25.3245 21.4198 25.3245H21.0905L16.5007 29.8785C16.1892 30.1884 15.7675 30.3624 15.328 30.3624C14.8884 30.3624 14.4667 30.1884 14.1552 29.8785L13.7778 29.5035C13.6232 29.3506 13.5005 29.1687 13.4167 28.9681C13.3329 28.7675 13.2898 28.5524 13.2898 28.335C13.2898 28.1177 13.3329 27.9025 13.4167 27.702C13.5005 27.5014 13.6232 27.3194 13.7778 27.1665L18.3436 22.6355ZM20.9193 24.3295C20.7623 24.3297 20.6117 24.3915 20.4998 24.5015L15.7959 29.1695C15.6716 29.2928 15.5036 29.3619 15.3285 29.3619C15.1533 29.3619 14.9853 29.2928 14.861 29.1695L14.4836 28.7945C14.4229 28.7345 14.3747 28.663 14.3418 28.5842C14.3089 28.5054 14.2919 28.4209 14.2919 28.3355C14.2919 28.2502 14.3089 28.1656 14.3418 28.0869C14.3747 28.0081 14.4229 27.9366 14.4836 27.8765L19.2035 23.1915C19.2501 23.1394 19.2858 23.0786 19.3086 23.0125C19.3226 22.9575 19.3426 22.8755 19.3446 22.8055H20.4688C20.5343 22.8057 20.5991 22.7928 20.6596 22.7678C20.7201 22.7427 20.775 22.7059 20.8212 22.6595L26.7884 16.7375C26.8705 16.656 26.9218 16.5486 26.9335 16.4335L27.0046 15.7445L29.4011 14.0385L29.7475 14.3825L28.0137 16.7455L27.3259 16.8305C27.2158 16.8444 27.1134 16.8943 27.0346 16.9725L21.0674 22.8945C21.0205 22.941 20.9832 22.9963 20.9578 23.0572C20.9324 23.1182 20.9193 23.1835 20.9193 23.2495V24.3295ZM13.018 25.8455C13.2563 25.9125 13.3694 26.1885 13.3013 26.4265C13.2861 26.4983 13.2548 26.5656 13.2097 26.6235C13.1646 26.6813 13.1069 26.7282 13.0411 26.7605C12.9165 26.8148 12.7762 26.8205 12.6477 26.7765C12.029 26.6005 11.1381 26.1995 10.6386 25.9095L8.41325 27.5005C8.32699 27.562 8.22342 27.5945 8.11746 27.5935C8.01151 27.5924 7.90862 27.5577 7.82363 27.4945C6.70719 26.6646 5.71778 25.6765 4.88657 24.5615C4.82321 24.4765 4.78848 24.3735 4.7874 24.2675C4.78632 24.1615 4.81894 24.0578 4.88057 23.9715L6.47323 21.7495C5.9627 20.8705 5.57229 19.9275 5.31102 18.9455L2.6112 18.4985C2.50652 18.4812 2.41005 18.4311 2.33574 18.3554C2.26143 18.2797 2.21311 18.1824 2.19777 18.0775C1.99658 16.7018 1.99658 15.3042 2.19777 13.9285C2.21341 13.8237 2.26182 13.7266 2.33608 13.651C2.41034 13.5754 2.50664 13.5251 2.6112 13.5075L5.31102 13.0615C5.57229 12.0795 5.9627 11.1365 6.47323 10.2575L4.88057 8.03552C4.81894 7.9492 4.78632 7.84557 4.7874 7.73955C4.78848 7.63352 4.82321 7.53058 4.88657 7.44552C5.71803 6.33045 6.7074 5.34211 7.82363 4.51152C7.90861 4.44816 8.01159 4.41351 8.11762 4.41261C8.22365 4.41171 8.32721 4.44461 8.41325 4.50652C8.41325 4.50652 10.6386 6.09652 10.6376 6.09752C11.5176 5.58779 12.4615 5.19704 13.4445 4.93552L13.892 2.23952C13.9093 2.13494 13.9595 2.03858 14.0352 1.96434C14.111 1.89011 14.2084 1.84184 14.3134 1.82652C15.6905 1.62553 17.0896 1.62553 18.4667 1.82652C18.5717 1.84184 18.6691 1.89011 18.7449 1.96434C18.8206 2.03858 18.8708 2.13494 18.8882 2.23952L19.3346 4.93552C20.3176 5.19652 21.2616 5.58752 22.1415 6.09652L24.3659 4.50652C24.4521 4.44467 24.5558 4.41182 24.662 4.41272C24.7682 4.41362 24.8713 4.44822 24.9565 4.51152C26.0727 5.34211 27.0621 6.33045 27.8935 7.44552C27.9569 7.53062 27.9915 7.63365 27.9924 7.73971C27.9933 7.84577 27.9605 7.94936 27.8985 8.03552L26.3069 10.2575C26.7594 11.0375 27.1718 11.9905 27.4291 12.8535C27.4563 12.9476 27.4522 13.0481 27.4171 13.1396C27.382 13.2311 27.3181 13.3087 27.2349 13.3605L27.2198 13.3705C27.1525 13.4127 27.0763 13.4387 26.9972 13.4466C26.9181 13.4545 26.8382 13.4441 26.7638 13.4161C26.6894 13.3881 26.6225 13.3434 26.5683 13.2854C26.514 13.2273 26.4739 13.1576 26.451 13.0815L26.407 12.9365C26.3086 12.6433 26.2004 12.3535 26.0827 12.0675C25.861 11.5222 25.5934 10.9966 25.2828 10.4965C25.2309 10.4126 25.2051 10.3152 25.2084 10.2166C25.2118 10.1181 25.2443 10.0227 25.3018 9.94252L26.8695 7.75452C26.2189 6.92961 25.4729 6.18443 24.6472 5.53452L22.4569 7.10152C22.3765 7.15883 22.281 7.19111 22.1823 7.19432C22.0836 7.19752 21.9862 7.1715 21.9023 7.11952C20.9388 6.52288 19.8846 6.08653 18.781 5.82752C18.6847 5.80514 18.5971 5.75472 18.5294 5.68263C18.4617 5.61055 18.4169 5.52003 18.4007 5.42252L17.9612 2.76852C16.9174 2.64452 15.8627 2.64452 14.8189 2.76852L14.3785 5.42252C14.3623 5.5199 14.3177 5.61032 14.2501 5.6824C14.1826 5.75447 14.0953 5.80496 13.9991 5.82752C12.8954 6.08635 11.8413 6.52271 10.8778 7.11952C10.7937 7.17133 10.6961 7.19725 10.5973 7.19405C10.4985 7.19085 10.4029 7.15867 10.3222 7.10152L8.13196 5.53552C7.30651 6.1851 6.5609 6.92994 5.91064 7.75452L7.47827 9.94252C7.53579 10.0227 7.56829 10.1181 7.57167 10.2166C7.57506 10.3152 7.54918 10.4126 7.49729 10.4965C6.89985 11.4593 6.46304 12.5127 6.20395 13.6155C6.18136 13.7116 6.13082 13.7989 6.05867 13.8663C5.98652 13.9338 5.896 13.9784 5.79852 13.9945L3.14076 14.4345C3.01763 15.4769 3.01763 16.5301 3.14076 17.5725L5.79852 18.0125C5.896 18.0287 5.98652 18.0733 6.05867 18.1407C6.13082 18.2082 6.18136 18.2954 6.20395 18.3915C6.46287 19.4941 6.8997 20.5472 7.49729 21.5095C7.54939 21.5936 7.57539 21.6911 7.57201 21.7899C7.56862 21.8887 7.536 21.9842 7.47827 22.0645L5.91064 24.2525C6.56132 25.0765 7.3071 25.8215 8.13196 26.4715L10.3222 24.9055C10.4027 24.848 10.4984 24.8156 10.5973 24.8124C10.6962 24.8092 10.7938 24.8353 10.8778 24.8875C11.4124 25.2185 12.4074 25.6745 13.018 25.8455ZM24.8894 15.7935C24.7805 15.7886 24.6774 15.7432 24.6004 15.6663C24.5233 15.5893 24.4779 15.4863 24.473 15.3775C24.2167 11.0755 20.7621 7.78652 16.3916 7.78652C14.211 7.78732 12.1201 8.65297 10.5782 10.1932C9.03635 11.7335 8.16979 13.8223 8.16899 16.0005C8.16899 19.9905 11.023 23.3195 14.7999 24.0605C14.9206 24.0825 15.0278 24.1511 15.0982 24.2515C15.1673 24.3524 15.1942 24.4761 15.1733 24.5965C15.1753 24.6055 15.1733 24.6135 15.1723 24.6215C15.1614 24.6826 15.1386 24.741 15.1051 24.7932C15.0717 24.8455 15.0282 24.8907 14.9773 24.9261C14.9263 24.9616 14.8689 24.9867 14.8082 25C14.7475 25.0133 14.6848 25.0145 14.6237 25.0035C10.4033 24.1745 7.213 20.4565 7.213 16.0005C7.213 10.9405 11.3263 6.83152 16.3916 6.83152C21.2596 6.83152 25.1237 10.5015 25.427 15.2885C25.4301 15.3552 25.4193 15.4218 25.3952 15.484C25.3711 15.5463 25.3343 15.6028 25.2871 15.6501C25.2399 15.6973 25.1834 15.7342 25.1211 15.7584C25.0588 15.7826 24.9922 15.7935 24.9254 15.7905C24.9138 15.794 24.9015 15.795 24.8894 15.7935ZM19.5248 20.4995L17.0192 18.0125C16.9499 17.9436 16.8617 17.8965 16.7658 17.8771C16.6699 17.8577 16.5704 17.8669 16.4796 17.9035C16.101 18.0558 15.6966 18.1339 15.2884 18.1335C13.5436 18.1335 12.1251 16.7285 12.1251 14.9965C12.1251 14.9355 12.1261 14.8745 12.1301 14.8135L13.3834 16.0585C13.8739 16.5445 14.6688 16.5445 15.1593 16.0585L16.3535 14.8725C16.4706 14.7565 16.5635 14.6185 16.6269 14.4664C16.6903 14.3144 16.723 14.1513 16.723 13.9865C16.723 13.8218 16.6903 13.6587 16.6269 13.5066C16.5635 13.3546 16.4706 13.2165 16.3535 13.1005L15.1082 11.8645C15.1673 11.8615 15.2273 11.8595 15.2884 11.8595C17.0342 11.8595 18.4527 13.2645 18.4527 14.9965C18.4527 15.4135 18.3706 15.8115 18.2215 16.1755C18.184 16.2669 18.1744 16.3674 18.194 16.4642C18.2136 16.561 18.2615 16.6499 18.3316 16.7195L20.8372 19.2065C20.9314 19.3 21.059 19.3523 21.1918 19.3518C21.3246 19.3513 21.4518 19.2982 21.5454 19.204C21.639 19.1099 21.6913 18.9824 21.6909 18.8498C21.6904 18.7171 21.6372 18.59 21.5429 18.4965L19.2635 16.2345C19.3897 15.834 19.4539 15.4165 19.4537 14.9965C19.4537 12.7145 17.5878 10.8595 15.2884 10.8595C14.8119 10.8595 14.3534 10.9395 13.927 11.0865C13.8466 11.1142 13.7747 11.1618 13.7178 11.2249C13.661 11.288 13.6212 11.3646 13.6022 11.4473C13.5832 11.53 13.5855 11.6163 13.6091 11.6978C13.6326 11.7794 13.6766 11.8536 13.7368 11.9135L15.6478 13.8105C15.6711 13.8337 15.6895 13.8612 15.7021 13.8915C15.7147 13.9217 15.7212 13.9542 15.7212 13.987C15.7212 14.0198 15.7147 14.0523 15.7021 14.0826C15.6895 14.1129 15.6711 14.1404 15.6478 14.1635L14.4535 15.3485C14.3524 15.4485 14.1893 15.4485 14.0892 15.3485L12.1782 13.4525C12.1179 13.3934 12.0437 13.3503 11.9625 13.3274C11.8812 13.3045 11.7954 13.3024 11.7131 13.3213C11.6308 13.3402 11.5546 13.3796 11.4915 13.4357C11.4284 13.4919 11.3806 13.563 11.3523 13.6425C11.2042 14.0665 11.1241 14.5225 11.1241 14.9965C11.1241 17.2785 12.989 19.1335 15.2884 19.1335C15.7121 19.1337 16.1333 19.0697 16.5377 18.9435L18.8201 21.2085C18.866 21.2579 18.9214 21.2976 18.983 21.3251C19.0446 21.3526 19.1111 21.3673 19.1786 21.3685C19.246 21.3696 19.313 21.3572 19.3755 21.3318C19.438 21.3064 19.4947 21.2687 19.5423 21.2209C19.5898 21.173 19.6272 21.1161 19.6521 21.0535C19.6771 20.9909 19.6891 20.9239 19.6875 20.8565C19.6859 20.7891 19.6706 20.7227 19.6427 20.6614C19.6147 20.6001 19.5746 20.545 19.5248 20.4995Z" fill="black"/>
</svg>
