<svg width="129" height="32" viewBox="0 0 129 32" fill="none" xmlns="http://www.w3.org/2000/svg">
<path d="M11.7099 0C9.94611 0 8.51645 1.43286 8.51645 3.19988C8.51603 3.61968 8.59829 4.03544 8.75856 4.42344C8.91882 4.81144 9.15392 5.16407 9.45046 5.46122C9.74701 5.75836 10.0992 5.99418 10.4868 6.15521C10.8746 6.31625 11.2901 6.39935 11.7099 6.39977H14.9039V3.19988C14.9046 2.35202 14.5685 1.5386 13.9696 0.938521C13.3706 0.338441 12.5578 0.0008504 11.7099 0ZM11.7099 8.53302H3.19347C1.42965 8.53302 0 9.96589 0 11.7334C0 13.5005 1.42965 14.9333 3.19347 14.9333H11.7105C13.4737 14.9333 14.9039 13.5005 14.9039 11.7334C14.9039 9.96589 13.4737 8.53302 11.7099 8.53302Z" fill="black"/>
<path d="M31.9351 11.7334C31.9351 9.96589 30.505 8.53302 28.7411 8.53302C26.9773 8.53302 25.5476 9.96589 25.5476 11.7334V14.9333H28.7411C29.589 14.9325 30.4018 14.5949 31.0007 13.9948C31.5998 13.3948 31.9358 12.5813 31.9351 11.7334ZM23.4187 11.7334V3.19988C23.4194 2.35202 23.0833 1.5386 22.4843 0.938521C21.8853 0.338441 21.0725 0.0008504 20.2246 0C18.4609 0 17.0312 1.43286 17.0312 3.19988V11.7329C17.0312 13.501 18.4609 14.9339 20.2246 14.9339C21.0725 14.933 21.8853 14.5954 22.4843 13.9953C23.0833 13.3953 23.4194 12.5813 23.4187 11.7334Z" fill="black"/>
<path d="M40.4537 25.3071L42.0196 21.6468C43.7343 22.9167 45.9707 23.5887 48.2077 23.5887C49.848 23.5887 50.8916 22.954 50.8916 21.9832C50.8542 19.2939 41.0129 21.3854 40.938 14.6242C40.9006 11.1881 43.9578 8.53617 48.2826 8.53617C50.8542 8.53617 53.4269 9.17134 55.2533 10.6283L53.79 14.3665C52.1096 13.286 50.034 12.5327 48.0585 12.5327C46.7165 12.5327 45.8215 13.1673 45.8215 13.9896C45.859 16.6415 55.7757 15.1846 55.8874 21.6468C55.8874 25.1579 52.9045 27.6232 48.6546 27.6232C45.5237 27.6232 42.6538 26.8763 40.4537 25.3071ZM102.809 20.3215C102.414 21.0238 101.839 21.6083 101.143 22.0152C100.447 22.422 99.6557 22.6365 98.8498 22.6365C96.338 22.6365 94.3021 20.5963 94.3021 18.0797C94.3021 15.5631 96.338 13.5229 98.8498 13.5229C99.6557 13.5229 100.447 13.7374 101.143 14.1441C101.839 14.551 102.414 15.1356 102.809 15.8379L107.163 13.4212C105.532 10.5069 102.421 8.53617 98.8498 8.53617C93.5893 8.53617 89.325 12.8086 89.325 18.0797C89.325 23.3503 93.5893 27.6232 98.8498 27.6232C102.421 27.6232 105.532 25.6525 107.163 22.738L102.809 20.3215ZM58.7125 27.2495H64.1552V0.591797H58.7131L58.7125 27.2495ZM109.911 0.591797V27.2495H115.354V19.2628L121.804 27.2495H128.76L120.559 17.7615L128.163 8.90829H121.505L115.354 16.2688V0.591797H109.911ZM80.9235 8.90936V11.0763C80.029 9.58194 77.8294 8.53617 75.5182 8.53617C70.7464 8.53617 66.9814 12.7572 66.9814 18.0609C66.9814 23.3647 70.7464 27.6232 75.5182 27.6232C77.8294 27.6232 80.029 26.5774 80.9235 25.0831V27.2495H86.3662V8.90936H80.9235ZM80.9235 20.3583C80.1407 21.6656 78.5005 22.636 76.674 22.636C74.1617 22.636 72.1258 20.5963 72.1258 18.0797C72.1258 15.5631 74.1617 13.5229 76.674 13.5229C78.5005 13.5229 80.1407 14.5312 80.9235 15.8753V20.3583Z" fill="black"/>
<path d="M1.61134e-06 20.2663C-0.000419868 20.686 0.0818474 21.1018 0.242106 21.4899C0.402365 21.8778 0.637476 22.2305 0.934018 22.5276C1.23056 22.8248 1.58272 23.0605 1.9704 23.2216C2.35808 23.3827 2.77367 23.4658 3.19347 23.4662C4.04133 23.4653 4.85413 23.1277 5.45311 22.5276C6.05209 21.9275 6.38818 21.1142 6.38748 20.2663V17.0664H3.19347C1.42965 17.0664 1.61134e-06 18.4993 1.61134e-06 20.2663ZM8.51645 20.2663V28.7993C8.51645 30.5669 9.94611 31.9997 11.71 31.9997C12.5578 31.9989 13.3706 31.6613 13.9696 31.0612C14.5685 30.4612 14.9046 29.6477 14.9039 28.7998V20.2663C14.9043 19.8465 14.8221 19.4307 14.6618 19.0426C14.5014 18.6546 14.2663 18.3019 13.9697 18.0048C13.6732 17.7076 13.3209 17.4718 12.9331 17.3108C12.5454 17.1498 12.1297 17.0667 11.71 17.0664C9.94611 17.0664 8.51645 18.4993 8.51645 20.2663Z" fill="black"/>
<path d="M20.2246 31.9997C21.0725 31.9989 21.8853 31.6613 22.4843 31.0612C23.0833 30.4612 23.4194 29.6477 23.4187 28.7998C23.4194 27.952 23.0833 27.1385 22.4843 26.5385C21.8853 25.9384 21.0725 25.6008 20.2246 25.6H17.0313V28.7998C17.0313 30.5669 18.4609 31.9997 20.2246 31.9997ZM20.2246 23.4667H28.7417C30.505 23.4667 31.9351 22.0339 31.9351 20.2663C31.9358 19.4184 31.5998 18.605 31.0007 18.005C30.4018 17.4049 29.589 17.0673 28.7411 17.0664H20.2246C18.4609 17.0664 17.0313 18.4993 17.0313 20.2663C17.0308 20.686 17.1131 21.1018 17.2733 21.4899C17.4336 21.8778 17.6687 22.2305 17.9652 22.5276C18.2618 22.8248 18.614 23.0605 19.0016 23.2216C19.3892 23.3827 19.8049 23.4663 20.2246 23.4667Z" fill="black"/>
</svg>
