<svg width="107" height="32" viewBox="0 0 107 32" fill="none" xmlns="http://www.w3.org/2000/svg">
<path d="M16.0003 0C7.16376 0 0 7.16356 0 16.0001C0 24.837 7.16376 32 16.0003 32C24.8378 32 32.0008 24.837 32.0008 16.0001C32.0008 7.16414 24.8378 0.000764251 16.0001 0.000764251L16.0003 0ZM23.3379 23.0767C23.0514 23.5467 22.4361 23.6958 21.9661 23.4072C18.2094 21.1126 13.4802 20.5929 7.91063 21.8654C7.37394 21.9877 6.83896 21.6514 6.71667 21.1145C6.59382 20.5776 6.92875 20.0427 7.46679 19.9204C13.5618 18.5278 18.7899 19.1275 23.0074 21.7049C23.4774 21.9934 23.6264 22.6067 23.3379 23.0767ZM25.2963 18.7201C24.9352 19.307 24.1672 19.4923 23.5806 19.1313C19.2797 16.4877 12.7237 15.7221 7.63665 17.2663C6.9769 17.4655 6.28009 17.0937 6.07986 16.4351C5.88115 15.7754 6.25315 15.0799 6.91175 14.8793C12.7226 13.1162 19.9465 13.9702 24.8856 17.0053C25.4721 17.3664 25.6574 18.1342 25.2963 18.7201ZM25.4645 14.1835C20.3077 11.1205 11.7995 10.8389 6.87602 12.3332C6.08539 12.573 5.2493 12.1266 5.00971 11.336C4.77011 10.545 5.21605 9.70949 6.00725 9.4691C11.6591 7.75337 21.0547 8.08488 26.9918 11.6094C27.7045 12.0315 27.9376 12.9499 27.5154 13.6601C27.095 14.3713 26.1733 14.6057 25.4645 14.1835ZM43.5315 14.7704C40.7687 14.1116 40.2777 13.6492 40.2777 12.6777C40.2777 11.7598 41.1413 11.1421 42.4271 11.1421C43.6729 11.1421 44.9072 11.6111 46.2026 12.5768C46.2408 12.606 46.2904 12.6177 46.3382 12.6101C46.3879 12.6028 46.4299 12.5762 46.4586 12.5363L47.8075 10.6348C47.8629 10.5565 47.8476 10.4485 47.7731 10.3887C46.2312 9.152 44.4964 8.55071 42.4673 8.55071C39.4848 8.55071 37.4002 10.3408 37.4002 12.902C37.4002 15.6485 39.1982 16.621 42.3048 17.3717C44.9473 17.9806 45.3944 18.4908 45.3944 19.4026C45.3944 20.4133 44.4926 21.0419 43.0405 21.0419C41.4279 21.0419 40.1115 20.4974 38.6402 19.2249C38.604 19.1924 38.5543 19.179 38.5084 19.181C38.4587 19.1848 38.4148 19.2077 38.3842 19.244L36.871 21.0438C36.8079 21.1202 36.8156 21.2311 36.8882 21.296C38.6002 22.8245 40.7057 23.6308 42.9794 23.6308C46.193 23.6308 48.2699 21.875 48.2699 19.1561C48.2757 16.862 46.9019 15.5914 43.5372 14.7729L43.5315 14.7704ZM55.5418 12.0459C54.149 12.0459 53.0064 12.5946 52.0626 13.719V12.4534C52.0626 12.3534 51.9822 12.2721 51.8829 12.2721H49.4086C49.3093 12.2721 49.229 12.3534 49.229 12.4534V26.5159C49.229 26.6152 49.3093 26.6974 49.4086 26.6974H51.8829C51.9822 26.6974 52.0626 26.6152 52.0626 26.5159V22.0775C53.0064 23.134 54.149 23.6518 55.5418 23.6518C58.1307 23.6518 60.7522 21.659 60.7522 17.8494C60.756 14.039 58.1346 12.0456 55.5437 12.0456L55.5418 12.0459ZM57.8747 17.8494C57.8747 19.7885 56.6805 21.1432 54.9686 21.1432C53.2777 21.1432 52.0014 19.7274 52.0014 17.8494C52.0014 15.9713 53.2777 14.5558 54.9686 14.5558C56.6519 14.5557 57.8747 15.9406 57.8747 17.8494ZM67.468 12.0459C64.1339 12.0459 61.5221 14.613 61.5221 17.8909C61.5221 21.1336 64.1168 23.6728 67.4279 23.6728C70.7734 23.6728 73.3929 21.1145 73.3929 17.8494C73.3929 14.5954 70.7906 12.0459 67.468 12.0459ZM67.468 21.1623C65.6949 21.1623 64.3575 19.7369 64.3575 17.8485C64.3575 15.9514 65.6491 14.5748 67.4279 14.5748C69.2124 14.5748 70.5576 15.9995 70.5576 17.8899C70.5576 19.7866 69.2583 21.1623 67.468 21.1623ZM80.512 12.2721H77.789V9.48899C77.789 9.38926 77.709 9.30789 77.6099 9.30789H75.1355C75.0361 9.30789 74.9539 9.38926 74.9539 9.48899V12.2721H73.7655C73.6661 12.2721 73.5859 12.3534 73.5859 12.4534V14.5794C73.5859 14.6791 73.6661 14.7607 73.7655 14.7607H74.9539V20.2623C74.9539 22.4844 76.0602 23.6117 78.2438 23.6117C79.1307 23.6117 79.8659 23.4283 80.56 23.0347C80.6171 23.0041 80.6514 22.943 80.6514 22.878V20.8527C80.6514 20.7916 80.6187 20.7323 80.5653 20.6999C80.512 20.6655 80.445 20.6636 80.3893 20.6923C79.9139 20.931 79.4537 21.0419 78.9379 21.0419C78.1448 21.0419 77.789 20.6808 77.789 19.8745V14.7616H80.512C80.611 14.7616 80.6918 14.6802 80.6918 14.5803V12.4546C80.6956 12.3546 80.6149 12.2732 80.5135 12.2732L80.512 12.2721ZM89.9962 12.283V11.9411C89.9962 10.9355 90.3825 10.4872 91.2457 10.4872C91.7615 10.4872 92.1768 10.5896 92.6408 10.7443C92.6979 10.7623 92.7573 10.7533 92.803 10.7191C92.8511 10.6849 92.8777 10.63 92.8777 10.572V8.48747C92.8777 8.40777 92.8282 8.3373 92.7497 8.31375C92.2606 8.168 91.6335 8.01836 90.6941 8.01836C88.4107 8.01836 87.2015 9.30499 87.2015 11.7378V12.2613H86.013C85.9131 12.2613 85.8309 12.3428 85.8309 12.4425V14.5794C85.8309 14.6791 85.9131 14.7607 86.013 14.7607H87.2015V23.2449C87.2015 23.3461 87.2831 23.4264 87.3829 23.4264H89.8552C89.9566 23.4264 90.0366 23.3461 90.0366 23.2449V14.7612H92.3467L95.885 23.2449C95.4834 24.1352 95.088 24.3129 94.5493 24.3129C94.1135 24.3129 93.6533 24.183 93.1855 23.925C93.1413 23.9021 93.088 23.8983 93.0423 23.9117C92.9943 23.9289 92.9539 23.9633 92.9349 24.0091L92.096 25.8491C92.0564 25.937 92.0907 26.0382 92.1745 26.0841C93.0499 26.5579 93.8385 26.7605 94.8152 26.7605C96.6415 26.7605 97.6526 25.9083 98.541 23.6194L102.832 12.5306C102.855 12.4747 102.847 12.4117 102.813 12.3622C102.78 12.3131 102.725 12.2835 102.666 12.2835H100.091C100.012 12.2835 99.9429 12.3326 99.9185 12.405L97.28 19.9394L94.3909 12.4001C94.3642 12.33 94.2971 12.2835 94.2225 12.2835L89.9962 12.283ZM84.4975 12.2721H82.0236C81.9238 12.2721 81.8415 12.3534 81.8415 12.4534V23.2449C81.8415 23.3461 81.9238 23.4264 82.0236 23.4264H84.4975C84.5966 23.4264 84.6789 23.3461 84.6789 23.2449V12.4542C84.6789 12.3542 84.5989 12.2728 84.4975 12.2728V12.2721ZM83.2747 7.35807C82.2949 7.35807 81.4994 8.15139 81.4994 9.13135C81.4994 10.1118 82.2949 10.9061 83.2747 10.9061C84.2552 10.9061 85.0476 10.1118 85.0476 9.13135C85.0476 8.15154 84.253 7.35807 83.2747 7.35807ZM104.946 15.7419C103.967 15.7419 103.205 14.9557 103.205 14.001C103.205 13.0462 103.976 12.251 104.955 12.251C105.933 12.251 106.696 13.0371 106.696 13.9911C106.696 14.9458 105.924 15.7419 104.946 15.7419ZM104.955 12.4242C104.062 12.4242 103.388 13.133 103.388 14.001C103.388 14.8686 104.059 15.5679 104.946 15.5679C105.838 15.5679 106.512 14.8597 106.512 13.9911C106.512 13.1234 105.842 12.4242 104.955 12.4242ZM105.341 14.1701L105.834 14.8594H105.417L104.974 14.227H104.594V14.8594H104.246V13.0321H105.06C105.486 13.0321 105.765 13.2494 105.765 13.615C105.767 13.9147 105.593 14.0977 105.342 14.1701H105.341ZM105.047 13.3457H104.594V13.9236H105.047C105.272 13.9236 105.408 13.813 105.408 13.6344C105.408 13.4463 105.272 13.3457 105.047 13.3457Z" fill="black"/>
</svg>
