<svg width="258" height="32" viewBox="0 0 258 32" fill="none" xmlns="http://www.w3.org/2000/svg">
<path d="M9.38131 14.5926C9.28734 14.4696 9.16325 14.373 9.02101 14.312C8.8788 14.2511 8.72324 14.2278 8.5694 14.2445C8.41556 14.2613 8.26862 14.3173 8.1428 14.4074C8.01699 14.4975 7.91655 14.6185 7.85118 14.7589L0.097817 30.2607C0.0271849 30.4019 -0.00616384 30.559 0.000937074 30.7167C0.00803799 30.8745 0.0553528 31.028 0.138389 31.1622C0.221426 31.2967 0.337428 31.4075 0.475381 31.4844C0.613335 31.5614 0.768661 31.6018 0.926613 31.6018H11.7228C11.8957 31.6058 12.0661 31.5595 12.2132 31.4686C12.3603 31.3777 12.4779 31.246 12.5516 31.0895C14.8804 26.2772 13.4691 18.96 9.38131 14.5926Z" fill="black"/>
<path d="M15.0683 0.497341C13.1364 3.46987 12.0106 6.89376 11.8013 10.4327C11.592 13.9718 12.3065 17.5045 13.8746 20.684L19.0796 31.0939C19.1565 31.2478 19.2748 31.3773 19.4211 31.4678C19.5676 31.5582 19.7362 31.6062 19.9083 31.6062H30.7026C30.8604 31.6062 31.0158 31.5658 31.1538 31.4888C31.2917 31.412 31.4078 31.301 31.4907 31.1666C31.5738 31.0324 31.621 30.8789 31.6282 30.7212C31.6353 30.5634 31.602 30.4065 31.5313 30.2651C31.5313 30.2651 17.0095 1.21796 16.6445 0.491523C16.5724 0.343588 16.4599 0.219072 16.3203 0.132086C16.1805 0.0452447 16.0192 -0.000576377 15.8547 5.47322e-06C15.69 0.000587323 15.529 0.0475713 15.3899 0.135576C15.2508 0.223435 15.1394 0.348824 15.0683 0.497341Z" fill="black"/>
<path d="M141.673 12.9253C141.673 16.7641 143.454 19.8116 150.42 21.1572C154.574 22.0295 155.446 22.7004 155.446 24.0855C155.446 25.431 154.573 26.3019 151.646 26.3019C148.109 26.2383 144.642 25.3002 141.555 23.5713V29.8235C143.652 30.8525 146.423 32.0002 151.568 32.0002C158.85 32.0002 161.738 28.7529 161.738 23.9271L141.673 12.9253ZM161.738 23.9271C161.738 19.376 159.324 17.2386 152.518 15.7748C148.757 14.9436 147.847 14.1129 147.847 12.9253C147.847 11.4228 149.192 10.7885 151.686 10.7885C154.694 10.7885 157.663 11.6986 160.471 12.9652V6.98898C157.778 5.76274 154.844 5.15441 151.883 5.20838C145.156 5.20838 141.673 8.13683 141.673 12.9253" fill="black"/>
<path d="M235.227 5.60254V31.6035H240.767V11.7764L243.102 17.0395L250.938 31.6035H257.903V5.60254H252.362V22.3827L250.264 17.5145L243.972 5.60254H235.227Z" fill="black"/>
<path d="M199.985 5.60254H193.93V31.6035H199.985V5.60254Z" fill="black"/>
<path d="M186.956 23.9271C186.956 19.376 184.542 17.2386 177.735 15.7748C173.975 14.9436 173.065 14.1129 173.065 12.9253C173.065 11.4228 174.41 10.7885 176.903 10.7885C179.912 10.7885 182.881 11.6986 185.689 12.9652V6.98898C182.995 5.76274 180.061 5.15441 177.101 5.20838C170.374 5.20838 166.891 8.13683 166.891 12.9253C166.891 16.7641 168.672 19.8116 175.638 21.1572C179.794 22.0295 180.664 22.7004 180.664 24.0855C180.664 25.431 179.791 26.3019 176.864 26.3019C173.327 26.2383 169.86 25.3002 166.773 23.5713V29.8235C168.871 30.8525 171.641 32.0002 176.786 32.0002C184.067 32.0002 186.956 28.7529 186.956 23.9271Z" fill="black"/>
<path d="M94.6406 5.60254V31.6035H107.086L109.046 25.9837H100.735V5.60254H94.6406Z" fill="black"/>
<path d="M70.0469 5.60254V11.2219H76.7748V31.6035H82.8691V11.2219H90.0718V5.60254H70.0469Z" fill="black"/>
<path d="M61.2178 5.60254H53.2309L44.1641 31.6035H51.0881L52.3735 27.2245C55.5391 28.154 58.9052 28.154 62.0709 27.2245L63.3562 31.6035H70.2818L61.2178 5.60254ZM57.2241 22.5357C56.0962 22.5357 54.9741 22.3742 53.892 22.0564L57.2241 10.7096L60.5562 22.0603C59.4738 22.3768 58.3519 22.537 57.2241 22.5357Z" fill="black"/>
<path d="M128.538 5.60254H120.551L111.484 31.6035H118.41L119.695 27.2245C122.861 28.154 126.227 28.154 129.393 27.2245L130.678 31.6035H137.604L128.538 5.60254ZM124.544 22.5357C123.417 22.5357 122.295 22.3742 121.212 22.0564L124.544 10.7096L127.877 22.0603C126.794 22.3768 125.672 22.537 124.544 22.5357Z" fill="black"/>
<path d="M221.81 5.60254H213.824L204.758 31.6035H211.683L212.968 27.2245C216.134 28.154 219.5 28.154 222.666 27.2245L223.952 31.6035H230.877L221.81 5.60254ZM217.815 22.5357C216.687 22.5357 215.566 22.3742 214.483 22.0564L217.815 10.7096L221.147 22.0603C220.065 22.3768 218.943 22.537 217.815 22.5357Z" fill="black"/>
</svg>
