<svg width="136" height="32" viewBox="0 0 136 32" fill="none" xmlns="http://www.w3.org/2000/svg">
<path fill-rule="evenodd" clip-rule="evenodd" d="M0 29.1163C0 30.8654 1.13508 31.9998 2.88483 31.9998L11.3136 32C16.3418 32 20.4551 30.2994 23.2515 27.3223H0V29.1163ZM11.3136 0.000159768L2.88483 0C1.13508 0 0 1.13455 0 2.88368V4.67775H23.2515C20.4551 1.70063 16.3418 0.000159768 11.3136 0.000159768ZM18.6695 20.5595C18.6695 21.9746 19.5916 22.8927 21.0134 22.8927H26.064C26.6365 21.4726 27.0212 19.9112 27.2 18.2265H21.0134C19.5916 18.2265 18.6695 19.1444 18.6695 20.5595ZM11.6688 11.452C11.6688 12.8671 12.591 13.785 14.0127 13.785H27.2C27.0212 12.1002 26.6365 10.539 26.064 9.11878H14.0127C12.591 9.11878 11.6688 10.0367 11.6688 11.452ZM14.0111 20.5595C14.0111 19.1444 13.0889 18.2265 11.6672 18.2265H0V22.8927H11.6672C13.0889 22.8927 14.0111 21.9748 14.0111 20.5595ZM7.01054 11.452C7.01054 10.0367 6.08836 9.11878 4.6666 9.11878H0V13.785H4.6666C6.08836 13.785 7.01054 12.8671 7.01054 11.452Z" fill="black"/>
<path fill-rule="evenodd" clip-rule="evenodd" d="M59.3156 15.5217C59.6912 13.6956 60.9044 12.7671 62.499 12.7671C64.0799 12.7671 65.236 13.7373 65.6047 15.5217H59.3156ZM62.5857 9.60352C58.5255 9.60352 56 12.8544 56 16.8308C56 20.949 58.6986 24.0035 62.7095 24.0035C65.4758 24.0035 67.1537 22.7216 68.1922 21.1074L65.61 19.4542C64.9608 20.343 63.922 20.8126 62.8086 20.8126C60.9872 20.8126 59.7675 19.958 59.3518 18.249H66.1673C66.1668 18.2511 66.1663 18.2534 66.1656 18.2557L68.6503 18.2703C68.7445 17.8206 68.8 17.356 68.8 16.8308C68.8 13.3672 66.6708 9.60352 62.5857 9.60352Z" fill="black"/>
<path fill-rule="evenodd" clip-rule="evenodd" d="M45.5984 20.8008C43.1002 20.8008 41.5984 19.0098 41.5984 16.8008C41.5984 14.5916 43.129 12.8008 45.5984 12.8008C48.0678 12.8008 49.5984 14.5916 49.5984 16.8008C49.5984 19.0098 48.0966 20.8008 45.5984 20.8008ZM49.3262 11.715C48.3287 10.5169 46.9123 9.78252 45.1543 9.78252C41.2246 9.78252 38.3984 12.9655 38.3984 16.8917C38.3984 20.818 41.1978 24.0008 45.1543 24.0008C46.9123 24.0008 48.3287 23.2664 49.3262 22.0683V23.6508H52.7984V4.80078H49.3262V11.715Z" fill="black"/>
<path fill-rule="evenodd" clip-rule="evenodd" d="M79.4167 16.5641C80.3594 17.2226 80.9567 18.2101 80.9567 19.513C80.9567 22.1465 79.1818 23.9736 75.8631 23.9736C72.74 23.9736 71.0653 22.3733 70.3984 20.7571L73.265 19.0832C73.265 19.0832 73.6509 20.8298 75.8117 20.8298C77.1493 20.8298 77.5611 20.2385 77.5611 19.7164C77.5611 19.4746 77.4838 19.0295 76.532 18.6532C74.6203 17.8977 70.9239 17.5587 70.9239 14.1121C70.9239 11.2908 73.1353 9.78618 75.8631 9.78618C78.4138 9.78618 80.0523 11.3732 80.6743 12.6081L77.8697 14.2465C77.8697 14.2465 77.3295 12.8761 75.8889 12.8761C74.4483 12.8761 74.3197 13.7092 74.3197 13.9509C74.3197 14.6563 75.0387 14.9459 76.5835 15.4021C77.4981 15.672 78.4375 15.9173 79.4196 16.5616L79.4167 16.5641ZM135.999 13.4941H133.091V19.083C133.091 20.8298 134.789 20.4535 135.999 20.4535V23.5973C135.999 23.5973 135.361 23.7048 134.249 23.7048C131.779 23.7048 129.773 22.9525 129.773 19.083V13.4941H127.535V10.1622H129.773V6.40039H133.091V10.1622H135.999V13.4941ZM89.2068 20.5879C90.5839 20.5879 91.6428 19.9018 92.1779 18.7762L95.0546 20.499C93.9275 22.5638 91.8272 24.0004 89.2068 24.0004C85.2324 24.0004 82.454 20.8244 82.454 16.9067C82.454 12.9889 85.258 9.81291 89.2068 9.81291C91.7887 9.81291 93.8811 11.2261 95.0207 13.2634L92.1502 15.0256C91.6046 13.9147 90.5541 13.2254 89.2068 13.2254C87.1986 13.2254 85.7727 14.8736 85.7727 16.9067C85.7727 18.9397 87.1854 20.5879 89.2068 20.5879Z" fill="black"/>
<path fill-rule="evenodd" clip-rule="evenodd" d="M119.716 20.5517C117.555 20.5517 116.256 18.8663 116.256 16.7874C116.256 14.7085 117.58 13.0234 119.716 13.0234C121.854 13.0234 123.178 14.7085 123.178 16.7874C123.178 18.8663 121.878 20.5517 119.716 20.5517ZM120.13 9.7396C123.778 9.7396 126.402 12.8952 126.402 16.7874C126.402 20.6799 123.803 23.8353 120.13 23.8353C118.497 23.8353 117.182 23.1072 116.256 21.9195V28.8009H113.031V10.1134H116.256V11.6555C117.182 10.4677 118.497 9.7396 120.13 9.7396ZM106.834 23.4882V10.1401H110.057V23.4882H106.834ZM100.826 12.4202C101.448 10.8026 102.715 9.87739 104.625 9.87325V13.7175C102.387 13.4913 100.77 14.6801 100.828 17.4882C100.827 17.4862 100.827 17.4841 100.826 17.4819V23.4882H97.6016V10.1402H100.826V12.4202ZM106.834 8.35871V4.80078H110.163V8.35871H106.834Z" fill="black"/>
</svg>
