<svg width="163" height="32" viewBox="0 0 163 32" fill="none" xmlns="http://www.w3.org/2000/svg">
<path d="M18.8522 6.0132L9.42611 12.0264L18.8522 18.0396L9.42611 24.0528L0 18.0071L9.42611 11.9939L0 6.0132L9.42611 0L18.8522 6.0132ZM9.37735 25.9868L18.8035 19.9736L28.2296 25.9868L18.8035 32L9.37735 25.9868ZM18.8522 18.0071L28.2783 11.9939L18.8522 6.0132L28.2296 0L37.6557 6.0132L28.2296 12.0264L37.6557 18.0396L28.2296 24.0528L18.8522 18.0071Z" fill="black"/>
<path d="M45.0547 6.01456H52.6768C57.5361 6.01456 61.5504 8.82614 61.5504 15.2456V16.5945C61.5504 23.0628 57.7962 25.9719 52.8231 25.9719H45.0547V6.01456ZM49.3127 9.63873V22.3315H52.5793C55.3421 22.3315 57.1949 20.5275 57.1949 16.5133V15.4569C57.1949 11.4427 55.2446 9.63873 52.433 9.63873H49.3127ZM63.8094 9.83376H67.2223L67.7748 13.5879C68.4249 11.0364 70.0826 9.67124 73.0892 9.67124H74.1456V13.978H72.3904C68.9287 13.978 68.0836 15.1806 68.0836 18.5935V26.0207H63.8744V9.83376H63.8094ZM74.9907 18.2522V17.7972C74.9907 12.3853 78.4523 9.42745 83.1654 9.42745C87.976 9.42745 91.3401 12.3853 91.3401 17.7972V18.2522C91.3401 23.5666 88.0735 26.427 83.1654 26.427C77.9485 26.3782 74.9907 23.5829 74.9907 18.2522ZM87.0333 18.2035V17.7972C87.0333 14.7906 85.5219 12.9866 83.1166 12.9866C80.7601 12.9866 79.1999 14.6443 79.1999 17.7972V18.2035C79.1999 21.1126 80.7114 22.7703 83.1166 22.7703C85.5219 22.7215 87.0333 21.1126 87.0333 18.2035ZM93.5504 9.83376H97.0608L97.4671 12.8891C98.3122 10.8414 100.116 9.42745 102.782 9.42745C106.893 9.42745 109.607 12.3853 109.607 17.8622V18.3173C109.607 23.6316 106.601 26.4432 102.782 26.4432C100.23 26.4432 98.4747 25.2893 97.6133 23.4366V31.6113H93.5016L93.5504 9.83376ZM105.333 18.2035V17.8459C105.333 14.6281 103.675 13.0354 101.465 13.0354C99.1085 13.0354 97.5483 14.8393 97.5483 17.8459V18.1547C97.5483 21.0151 99.0598 22.819 101.416 22.819C103.838 22.7703 105.333 21.2263 105.333 18.2035ZM115.832 23.0303L115.474 25.9881H111.866V4.42188H115.978V12.6941C116.888 10.5813 118.692 9.42745 121.244 9.42745C125.112 9.47621 127.972 12.1415 127.972 17.5047V18.0085C127.972 23.3716 125.258 26.4432 121.146 26.4432C118.432 26.3782 116.677 25.1268 115.832 23.0303ZM123.649 18.0085V17.6022C123.649 14.6443 122.04 12.9866 119.781 12.9866C117.473 12.9866 115.864 14.8393 115.864 17.6509V18.0085C115.864 21.0151 117.425 22.7703 119.732 22.7703C122.203 22.7703 123.649 21.2263 123.649 18.0085ZM129.776 18.2522V17.7972C129.776 12.3853 133.238 9.42745 137.951 9.42745C142.761 9.42745 146.125 12.3853 146.125 17.7972V18.2522C146.125 23.5666 142.81 26.427 137.951 26.427C132.734 26.3782 129.776 23.5829 129.776 18.2522ZM141.851 18.2035V17.7972C141.851 14.7906 140.34 12.9866 137.934 12.9866C135.578 12.9866 134.018 14.6443 134.018 17.7972V18.2035C134.018 21.1126 135.529 22.7703 137.934 22.7703C140.356 22.7215 141.851 21.1126 141.851 18.2035ZM151.635 17.6022L145.963 9.83376H150.822L154.089 14.6931L157.404 9.83376H162.215L156.462 17.5534L162.524 25.9881H157.762L154.056 20.625L150.448 25.9881H145.475L151.635 17.6022Z" fill="black"/>
</svg>
